#define display_width 264
#define display_height 176
static char display_bits[] = {
  0x70, 0x00, 0x00, 0x00, 0xE0, 0x00, 0x07, 0x00, 0xC0, 0x01, 0x0E, 0x00, 
  0x00, 0x00, 0x00, 0x00, 0x00, 0x00, 0x00, 0x00, 0x00, 0x00, 0x00, 0x80, 
  0x03, 0x1C, 0xE0, 0x00, 0x00, 0x00, 0x00, 0x00, 0x00, 0x70, 0x00, 0x00, 
  0x00, 0xE0, 0x00, 0x07, 0x00, 0xC0, 0x01, 0x0E, 0x00, 0x00, 0x00, 0x00, 
  0x00, 0x00, 0x00, 0x00, 0x00, 0x00, 0x00, 0x00, 0x80, 0x03, 0x1C, 0xE0, 
  0x00, 0x00, 0x00, 0x00, 0x00, 0x00, 0x70, 0x00, 0x00, 0x00, 0xE0, 0x00, 
  0x07, 0x00, 0xC0, 0x01, 0x0E, 0x00, 0x00, 0x00, 0x00, 0x00, 0x00, 0x00, 
  0x00, 0x00, 0x00, 0x00, 0x00, 0x80, 0x03, 0x1C, 0xE0, 0x00, 0x00, 0x00, 
  0x00, 0x00, 0x00, 0x00, 0x00, 0x00, 0x00, 0x00, 0x00, 0x00, 0x00, 0x00, 
  0x00, 0x00, 0x00, 0x00, 0x00, 0x00, 0xFE, 0x0F, 0x00, 0x00, 0x00, 0x00, 
  0x00, 0x00, 0x00, 0x00, 0x00, 0x00, 0x00, 0x00, 0x00, 0x00, 0x00, 0x00, 
  0x0E, 0x71, 0x88, 0x43, 0x1C, 0x22, 0x10, 0x81, 0x08, 0x44, 0x20, 0x02, 
  0x11, 0x88, 0x40, 0xFA, 0x2D, 0x10, 0x81, 0xF0, 0x87, 0x3F, 0xFC, 0xE1, 
  0x0F, 0x7F, 0xF8, 0xC3, 0x1F, 0xFE, 0xF0, 0x87, 0x3F, 0x12, 0x92, 0x90, 
  0x84, 0x24, 0x24, 0x10, 0x81, 0x08, 0x44, 0x20, 0x02, 0x11, 0x88, 0x40, 
  0xFA, 0x2D, 0x10, 0x81, 0x28, 0x48, 0x41, 0x0A, 0x52, 0x90, 0x82, 0x14, 
  0xA4, 0x20, 0x05, 0x29, 0x48, 0x41, 0x22, 0x12, 0x91, 0x88, 0x44, 0xE4, 
  0x3F, 0xFF, 0xF9, 0xCF, 0x7F, 0xFE, 0xF3, 0x9F, 0xFF, 0x02, 0xE8, 0x3F, 
  0xFF, 0xC9, 0x49, 0x4E, 0x72, 0x92, 0x93, 0x9C, 0xE4, 0x24, 0x27, 0x39, 
  0xC9, 0x49, 0x4E, 0x22, 0x12, 0x91, 0x88, 0x44, 0x24, 0x00, 0x01, 0x08, 
  0x40, 0x00, 0x02, 0x10, 0x80, 0x00, 0xFA, 0x2F, 0x00, 0x01, 0x08, 0x4A, 
  0x50, 0x82, 0x12, 0x94, 0xA0, 0x04, 0x25, 0x28, 0x41, 0x09, 0x4A, 0x50, 
  0xC2, 0x11, 0x8E, 0x70, 0x84, 0x23, 0x00, 0x01, 0x08, 0x40, 0x00, 0x02, 
  0x10, 0x80, 0x00, 0xFA, 0x2F, 0x00, 0x01, 0xF0, 0x87, 0x3F, 0xFC, 0xE1, 
  0x0F, 0x7F, 0xF8, 0xC3, 0x1F, 0xFE, 0xF0, 0x87, 0x3F, 0x00, 0x00, 0x00, 
  0x00, 0x00, 0x00, 0x00, 0x00, 0x00, 0x00, 0x00, 0x00, 0x00, 0x00, 0x00, 
  0xFE, 0x0F, 0x00, 0x00, 0x00, 0x00, 0x00, 0x00, 0x00, 0x00, 0x00, 0x00, 
  0x00, 0x00, 0x00, 0x00, 0x00, 0x00, 0x04, 0x71, 0x88, 0x40, 0xF8, 0xC3, 
  0x1C, 0xEE, 0x38, 0x8C, 0x3F, 0xC4, 0x83, 0x03, 0x41, 0xE2, 0x2D, 0x10, 
  0xFE, 0x30, 0x87, 0x3B, 0x0E, 0xE3, 0x0F, 0xF1, 0xE0, 0x40, 0x10, 0x87, 
  0x08, 0x84, 0x3F, 0x22, 0x92, 0x90, 0x40, 0x14, 0x24, 0x22, 0x11, 0x41, 
  0x48, 0x44, 0x42, 0x82, 0x8C, 0x88, 0xDA, 0x2B, 0x10, 0x05, 0x89, 0x48, 
  0x44, 0x10, 0x12, 0x91, 0x90, 0x20, 0x23, 0x22, 0x09, 0x09, 0x44, 0x41, 
  0x22, 0x12, 0x91, 0xFF, 0xE4, 0x24, 0x22, 0x11, 0x81, 0x48, 0x44, 0x42, 
  0x82, 0x90, 0x88, 0xBA, 0xEB, 0x3F, 0x39, 0x89, 0x48, 0x44, 0x20, 0x12, 
  0x91, 0x90, 0x20, 0x24, 0x22, 0x11, 0xF9, 0x4F, 0x4E, 0x22, 0x12, 0x91, 
  0x00, 0x04, 0x25, 0x22, 0x11, 0x01, 0x49, 0x44, 0x42, 0xF2, 0x9F, 0x88, 
  0xBA, 0x2B, 0x00, 0x41, 0x89, 0x48, 0x44, 0x40, 0x12, 0x91, 0x90, 0xFC, 
  0x27, 0x22, 0x11, 0x09, 0x40, 0x50, 0xDC, 0x11, 0x8E, 0x00, 0xF8, 0xC3, 
  0x1F, 0xEE, 0x00, 0x8E, 0x23, 0x3C, 0x82, 0x00, 0x77, 0x7A, 0x2C, 0x00, 
  0xFE, 0xF0, 0x87, 0x3B, 0x80, 0xE3, 0x08, 0x8F, 0x20, 0xC0, 0x1D, 0xE1, 
  0x08, 0x80, 0x3F, 0x00, 0x00, 0x00, 0x00, 0x00, 0x00, 0x00, 0x00, 0x00, 
  0x00, 0x00, 0x00, 0x00, 0x00, 0x00, 0xFE, 0x0F, 0x00, 0x00, 0x00, 0x00, 
  0x00, 0x00, 0x00, 0x00, 0x00, 0x00, 0x00, 0x00, 0x00, 0x00, 0x00, 0x00, 
  0x00, 0x00, 0x00, 0x00, 0x00, 0x00, 0x00, 0x00, 0x00, 0x00, 0x00, 0x00, 
  0x00, 0x00, 0x00, 0xFC, 0x07, 0x00, 0x00, 0x00, 0x00, 0x00, 0x00, 0x00, 
  0x00, 0x00, 0x00, 0x00, 0x00, 0x00, 0x00, 0x00, 0x00, 0x00, 0x00, 0x00, 
  0x00, 0x00, 0x00, 0x00, 0x00, 0x00, 0x00, 0x00, 0x00, 0x00, 0x00, 0x00, 
  0xF8, 0x03, 0x00, 0x00, 0x00, 0x00, 0x00, 0x00, 0x00, 0x00, 0x00, 0x00, 
  0x00, 0x00, 0x00, 0x00, 0x00, 0x00, 0x00, 0x00, 0x00, 0x00, 0x00, 0x00, 
  0x00, 0x00, 0x00, 0x00, 0x00, 0x00, 0x00, 0x00, 0x00, 0xE0, 0x00, 0x00, 
  0x00, 0x00, 0x00, 0x00, 0x00, 0x00, 0x00, 0x00, 0x00, 0x00, 0x00, 0x00, 
  0x00, 0x00, 0x00, 0x00, 0x00, 0x00, 0x00, 0x00, 0x00, 0x00, 0x00, 0x00, 
  0x00, 0x00, 0x00, 0x00, 0x00, 0x00, 0x00, 0x00, 0x00, 0x00, 0x00, 0x00, 
  0x00, 0x00, 0x00, 0x00, 0x00, 0x00, 0x00, 0x00, 0x00, 0x00, 0x00, 0x00, 
  0x48, 0x42, 0x12, 0x92, 0x90, 0x84, 0x24, 0x24, 0x21, 0x09, 0x49, 0x48, 
  0x42, 0x12, 0x92, 0x90, 0x84, 0x24, 0x24, 0x21, 0x09, 0x49, 0x48, 0x42, 
  0x12, 0x92, 0x90, 0x84, 0x24, 0x24, 0x21, 0x09, 0x49, 0x24, 0x21, 0x09, 
  0x49, 0x48, 0x42, 0x12, 0x92, 0x90, 0x84, 0x24, 0x24, 0x21, 0x09, 0x49, 
  0x48, 0x42, 0x12, 0x92, 0x90, 0x84, 0x24, 0x24, 0x21, 0x09, 0x00, 0x48, 
  0x42, 0x12, 0x92, 0x90, 0x84, 0x24, 0x92, 0x90, 0x84, 0x24, 0x24, 0x21, 
  0x09, 0x49, 0x48, 0x42, 0x12, 0x92, 0x90, 0x84, 0x24, 0x24, 0x21, 0x09, 
  0x49, 0x48, 0x42, 0x12, 0x92, 0x90, 0x04, 0x00, 0x24, 0x21, 0x09, 0x49, 
  0x48, 0x42, 0x12, 0x48, 0x42, 0x12, 0x92, 0x90, 0x84, 0x24, 0x24, 0x21, 
  0x09, 0x49, 0x48, 0x42, 0x12, 0x92, 0x90, 0x84, 0x24, 0x24, 0x21, 0x09, 
  0x49, 0x48, 0x42, 0x12, 0x00, 0x90, 0x84, 0x24, 0x24, 0x21, 0x09, 0x49, 
  0x24, 0x21, 0x09, 0x49, 0x48, 0x42, 0x12, 0x92, 0x90, 0x84, 0x24, 0x24, 
  0x21, 0x09, 0x49, 0x48, 0x42, 0x12, 0x92, 0x90, 0x84, 0x24, 0x24, 0x21, 
  0x09, 0x00, 0x48, 0x42, 0x12, 0x92, 0x90, 0x84, 0x24, 0x92, 0x90, 0x84, 
  0x24, 0x24, 0x21, 0x09, 0x49, 0x48, 0x42, 0x12, 0x92, 0x90, 0x84, 0x24, 
  0x24, 0x21, 0x09, 0x49, 0x48, 0x42, 0x12, 0x92, 0x90, 0x04, 0x00, 0x24, 
  0x21, 0x09, 0x49, 0x48, 0x42, 0x12, 0x48, 0x42, 0x12, 0x92, 0x90, 0x84, 
  0x24, 0x24, 0x21, 0x09, 0x49, 0x48, 0x42, 0x12, 0x92, 0x90, 0x84, 0x24, 
  0x24, 0x21, 0x09, 0x49, 0x48, 0x42, 0x12, 0x00, 0x90, 0x84, 0x24, 0x24, 
  0x21, 0x09, 0x49, 0x24, 0x21, 0x09, 0x49, 0x48, 0x42, 0x12, 0x92, 0x90, 
  0x84, 0x24, 0x24, 0x21, 0x09, 0x49, 0x48, 0x42, 0x12, 0x92, 0x90, 0x84, 
  0x24, 0x24, 0x21, 0x09, 0x00, 0x48, 0x42, 0x12, 0x92, 0x90, 0x84, 0x24, 
  0x92, 0x90, 0x84, 0x24, 0x24, 0x21, 0x09, 0x49, 0x48, 0x42, 0x12, 0x92, 
  0x90, 0x84, 0x24, 0x24, 0x21, 0x09, 0x49, 0x48, 0x42, 0x12, 0x92, 0x90, 
  0x04, 0x00, 0x24, 0x21, 0x09, 0x49, 0x48, 0x42, 0x12, 0x48, 0x42, 0x12, 
  0x92, 0x90, 0x84, 0x24, 0x24, 0x21, 0x09, 0x49, 0x48, 0x42, 0x12, 0x92, 
  0x90, 0x84, 0x24, 0x24, 0x21, 0x09, 0x49, 0x48, 0x42, 0x12, 0x00, 0x90, 
  0x84, 0x24, 0x24, 0x21, 0x09, 0x49, 0x24, 0x21, 0x09, 0x49, 0x48, 0x42, 
  0x12, 0x92, 0x90, 0x84, 0x24, 0x24, 0x21, 0x09, 0x49, 0x48, 0x42, 0x12, 
  0x92, 0x90, 0x84, 0x24, 0x24, 0x21, 0x09, 0x00, 0x48, 0x42, 0x12, 0x92, 
  0x90, 0x84, 0x24, 0x92, 0x90, 0x84, 0x24, 0x24, 0x21, 0x09, 0x49, 0x48, 
  0x42, 0x12, 0x92, 0x90, 0x84, 0x24, 0x24, 0x21, 0x09, 0x49, 0x48, 0x42, 
  0x12, 0x92, 0x90, 0x04, 0x00, 0x24, 0x21, 0x09, 0x49, 0x48, 0x42, 0x12, 
  0x48, 0x42, 0x12, 0x92, 0x90, 0x84, 0x24, 0x24, 0x21, 0x09, 0x49, 0x48, 
  0x42, 0x12, 0x92, 0x90, 0x84, 0x24, 0x24, 0x21, 0x09, 0x49, 0x48, 0x42, 
  0x12, 0x00, 0x90, 0x84, 0x24, 0x24, 0x21, 0x09, 0x49, 0x24, 0x21, 0x09, 
  0x49, 0x48, 0x42, 0x12, 0x92, 0x90, 0x84, 0x24, 0x24, 0x21, 0x09, 0x49, 
  0x48, 0x42, 0x12, 0x92, 0x90, 0x84, 0x24, 0x24, 0x21, 0x09, 0x00, 0x48, 
  0x42, 0x12, 0x92, 0x90, 0x84, 0x24, 0x92, 0x90, 0x84, 0x24, 0x24, 0x21, 
  0x09, 0x49, 0x48, 0x42, 0x12, 0x92, 0x90, 0x84, 0x24, 0x24, 0x21, 0x09, 
  0x49, 0x48, 0x42, 0x12, 0x92, 0x90, 0x04, 0x00, 0x24, 0x21, 0x09, 0x49, 
  0x48, 0x42, 0x12, 0x48, 0x42, 0x12, 0x92, 0x90, 0x84, 0x24, 0x24, 0x21, 
  0x09, 0x49, 0x48, 0x42, 0x12, 0x92, 0x90, 0x84, 0x24, 0x24, 0x21, 0x09, 
  0x49, 0x48, 0x42, 0x12, 0x00, 0x90, 0x84, 0x24, 0x24, 0x21, 0x09, 0x49, 
  0x24, 0x21, 0x09, 0x49, 0x48, 0x42, 0x12, 0x92, 0x90, 0x84, 0x24, 0x24, 
  0x21, 0x09, 0x49, 0x48, 0x42, 0x12, 0x92, 0x90, 0x84, 0x24, 0x24, 0x21, 
  0x09, 0x00, 0x48, 0x42, 0x12, 0x92, 0x90, 0x84, 0x24, 0x92, 0x90, 0x84, 
  0x24, 0x24, 0x21, 0x09, 0x49, 0x48, 0x42, 0x12, 0x92, 0x90, 0x84, 0x24, 
  0x24, 0x21, 0x09, 0x49, 0x48, 0x42, 0x12, 0x92, 0x90, 0x04, 0x00, 0x24, 
  0x21, 0x09, 0x49, 0x48, 0x42, 0x12, 0x48, 0x42, 0x12, 0x92, 0x90, 0x84, 
  0x24, 0x24, 0x21, 0x09, 0x49, 0x48, 0x42, 0x12, 0x92, 0x90, 0x84, 0x24, 
  0x24, 0x21, 0x09, 0x49, 0x48, 0x42, 0x12, 0x00, 0x90, 0x84, 0x24, 0x24, 
  0x21, 0x09, 0x49, 0x24, 0x21, 0x09, 0x49, 0x48, 0x42, 0x12, 0x92, 0x90, 
  0x84, 0x24, 0x24, 0x21, 0x09, 0x49, 0x48, 0x42, 0x12, 0x92, 0x90, 0x84, 
  0x24, 0x24, 0x21, 0x09, 0x00, 0x48, 0x42, 0x12, 0x92, 0x90, 0x84, 0x24, 
  0x92, 0x90, 0x84, 0x24, 0x24, 0x21, 0x09, 0x49, 0x48, 0x42, 0x12, 0x92, 
  0x90, 0x84, 0x24, 0x24, 0x21, 0x09, 0x49, 0x48, 0x42, 0x12, 0x92, 0x90, 
  0x04, 0x00, 0x24, 0x21, 0x09, 0x49, 0x48, 0x42, 0x12, 0x48, 0x42, 0x12, 
  0x92, 0x90, 0x84, 0x24, 0x24, 0x21, 0x09, 0x49, 0x48, 0x42, 0x12, 0x92, 
  0x90, 0x84, 0x24, 0x24, 0x21, 0x09, 0x49, 0x48, 0x42, 0x12, 0x00, 0x90, 
  0x84, 0x24, 0x24, 0x21, 0x09, 0x49, 0x24, 0x21, 0x09, 0x49, 0x48, 0x42, 
  0x12, 0x92, 0x90, 0x84, 0x24, 0x24, 0x21, 0x09, 0x49, 0x48, 0x42, 0x12, 
  0x92, 0x90, 0x84, 0x24, 0x24, 0x21, 0x09, 0x00, 0x48, 0x42, 0x12, 0x92, 
  0x90, 0x84, 0x24, 0x92, 0x90, 0x84, 0x24, 0x24, 0x21, 0x09, 0x49, 0x48, 
  0x42, 0x12, 0x92, 0x90, 0x84, 0x24, 0x24, 0x21, 0x09, 0x49, 0x48, 0x42, 
  0x12, 0x92, 0x90, 0x04, 0x00, 0x24, 0x21, 0x09, 0x49, 0x48, 0x42, 0x12, 
  0x48, 0x42, 0x12, 0x92, 0x90, 0x84, 0x24, 0x24, 0x21, 0x09, 0x49, 0x48, 
  0x42, 0x12, 0x92, 0x90, 0x84, 0x24, 0x24, 0x21, 0x09, 0x49, 0x48, 0x42, 
  0x12, 0x00, 0x90, 0x84, 0x24, 0x24, 0x21, 0x09, 0x49, 0x24, 0x21, 0x09, 
  0x49, 0x48, 0x42, 0x12, 0x92, 0x90, 0x84, 0x24, 0x24, 0x21, 0x09, 0x49, 
  0x48, 0x42, 0x12, 0x92, 0x90, 0x84, 0x24, 0x24, 0x21, 0x09, 0x00, 0x48, 
  0x42, 0x12, 0x92, 0x90, 0x84, 0x24, 0x92, 0x90, 0x84, 0x24, 0x24, 0x21, 
  0x09, 0x49, 0x48, 0x42, 0x12, 0x92, 0x90, 0x84, 0x24, 0x24, 0x21, 0x09, 
  0x49, 0x48, 0x42, 0x12, 0x92, 0x90, 0x04, 0x00, 0x24, 0x21, 0x09, 0x49, 
  0x48, 0x42, 0x12, 0x48, 0x42, 0x12, 0x92, 0x90, 0x84, 0x24, 0x24, 0x21, 
  0x09, 0x49, 0x48, 0x42, 0x12, 0x92, 0x90, 0x84, 0x24, 0x24, 0x21, 0x09, 
  0x49, 0x48, 0x42, 0x12, 0x00, 0x90, 0x84, 0x24, 0x24, 0x21, 0x09, 0x49, 
  0x24, 0x21, 0x09, 0x49, 0x48, 0x42, 0x12, 0x92, 0x90, 0x84, 0x24, 0x24, 
  0x21, 0x09, 0x49, 0x48, 0x42, 0x12, 0x92, 0x90, 0x84, 0x24, 0x24, 0x21, 
  0x09, 0x00, 0x48, 0x42, 0x12, 0x92, 0x90, 0x84, 0x24, 0x92, 0x90, 0x84, 
  0x24, 0x24, 0x21, 0x09, 0x49, 0x48, 0x42, 0x12, 0x92, 0x90, 0x84, 0x24, 
  0x24, 0x21, 0x09, 0x49, 0x48, 0x42, 0x12, 0x92, 0x90, 0x04, 0x00, 0x24, 
  0x21, 0x09, 0x49, 0x48, 0x42, 0x12, 0x48, 0x42, 0x12, 0x92, 0x90, 0x84, 
  0x24, 0x24, 0x21, 0x09, 0x49, 0x48, 0x42, 0x12, 0x92, 0x90, 0x84, 0x24, 
  0x24, 0x21, 0x09, 0x49, 0x48, 0x42, 0x12, 0x00, 0x90, 0x84, 0x24, 0x24, 
  0x21, 0x09, 0x49, 0x24, 0x21, 0x09, 0x49, 0x48, 0x42, 0x12, 0x92, 0x90, 
  0x84, 0x24, 0x24, 0x21, 0x09, 0x49, 0x48, 0x42, 0x12, 0x92, 0x90, 0x84, 
  0x24, 0x24, 0x21, 0x09, 0x00, 0x48, 0x42, 0x12, 0x92, 0x90, 0x84, 0x24, 
  0x92, 0x90, 0x84, 0x24, 0x24, 0x21, 0x09, 0x49, 0x48, 0x42, 0x12, 0x92, 
  0x90, 0x84, 0x24, 0x24, 0x21, 0x09, 0x49, 0x48, 0x42, 0x12, 0x92, 0x90, 
  0x04, 0x00, 0x24, 0x21, 0x09, 0x49, 0x48, 0x42, 0x12, 0x48, 0x42, 0x12, 
  0x92, 0x90, 0x84, 0x24, 0x24, 0x21, 0x09, 0x49, 0x48, 0x42, 0x12, 0x92, 
  0x90, 0x84, 0x24, 0x24, 0x21, 0x09, 0x49, 0x48, 0x42, 0x12, 0x00, 0x90, 
  0x84, 0x24, 0x24, 0x21, 0x09, 0x49, 0x24, 0x21, 0x09, 0x49, 0x48, 0x42, 
  0x12, 0x92, 0x90, 0x84, 0x24, 0x24, 0x21, 0x09, 0x49, 0x48, 0x42, 0x12, 
  0x92, 0x90, 0x84, 0x24, 0x24, 0x21, 0x09, 0x00, 0x48, 0x42, 0x12, 0x92, 
  0x90, 0x84, 0x24, 0x92, 0x90, 0x84, 0x24, 0x24, 0x21, 0x09, 0x49, 0x48, 
  0x42, 0x12, 0x92, 0x90, 0x84, 0x24, 0x24, 0x21, 0x09, 0x49, 0x48, 0x42, 
  0x12, 0x92, 0x90, 0x04, 0x00, 0x24, 0x21, 0x09, 0x49, 0x48, 0x42, 0x12, 
  0x48, 0x42, 0x12, 0x92, 0x90, 0x84, 0x24, 0x24, 0x21, 0x09, 0x49, 0x48, 
  0x42, 0x12, 0x92, 0x90, 0x84, 0x24, 0x24, 0x21, 0x09, 0x49, 0x48, 0x42, 
  0x12, 0x00, 0x90, 0x84, 0x24, 0x24, 0x21, 0x09, 0x49, 0x24, 0x21, 0x09, 
  0x49, 0x48, 0x42, 0x12, 0x92, 0x90, 0x84, 0x24, 0x24, 0x21, 0x09, 0x49, 
  0x48, 0x42, 0x12, 0x92, 0x90, 0x84, 0x24, 0x24, 0x21, 0x09, 0x00, 0x48, 
  0x42, 0x12, 0x92, 0x90, 0x84, 0x24, 0x92, 0x90, 0x84, 0x24, 0x24, 0x21, 
  0x09, 0x49, 0x48, 0x42, 0x12, 0x92, 0x90, 0x84, 0x24, 0x24, 0x21, 0x09, 
  0x49, 0x48, 0x42, 0x12, 0x92, 0x90, 0x04, 0x00, 0x24, 0x21, 0x09, 0x49, 
  0x48, 0x42, 0x12, 0x48, 0x42, 0x12, 0x92, 0x90, 0x84, 0x24, 0x24, 0x21, 
  0x09, 0x49, 0x48, 0x42, 0x12, 0x92, 0x90, 0x84, 0x24, 0x24, 0x21, 0x09, 
  0x49, 0x48, 0x42, 0x12, 0x00, 0x90, 0x84, 0x24, 0x24, 0x21, 0x09, 0x49, 
  0x24, 0x21, 0x09, 0x49, 0x48, 0x42, 0x12, 0x92, 0x90, 0x84, 0x24, 0x24, 
  0x21, 0x09, 0x49, 0x48, 0x42, 0x12, 0x92, 0x90, 0x84, 0x24, 0x24, 0x21, 
  0x09, 0x00, 0x48, 0x42, 0x12, 0x92, 0x90, 0x84, 0x24, 0x92, 0x90, 0x84, 
  0x24, 0x24, 0x21, 0x09, 0x49, 0x48, 0x42, 0x12, 0x92, 0x90, 0x84, 0x24, 
  0x24, 0x21, 0x09, 0x49, 0x48, 0x42, 0x12, 0x92, 0x90, 0x04, 0x00, 0x24, 
  0x21, 0x09, 0x49, 0x48, 0x42, 0x12, 0x48, 0x42, 0x12, 0x92, 0x90, 0x84, 
  0x24, 0x24, 0x21, 0x09, 0x49, 0x48, 0x42, 0x12, 0x92, 0x90, 0x84, 0x24, 
  0x24, 0x21, 0x09, 0x49, 0x48, 0x42, 0x12, 0x00, 0x90, 0x84, 0x24, 0x24, 
  0x21, 0x09, 0x49, 0x24, 0x21, 0x09, 0x49, 0x48, 0x42, 0x12, 0x92, 0x90, 
  0x84, 0x24, 0x24, 0x21, 0x09, 0x49, 0x48, 0x42, 0x12, 0x92, 0x90, 0x84, 
  0x24, 0x24, 0x21, 0x09, 0x00, 0x48, 0x42, 0x12, 0x92, 0x90, 0x84, 0x24, 
  0x92, 0x90, 0x84, 0x24, 0x24, 0x21, 0x09, 0x49, 0x48, 0x42, 0x12, 0x92, 
  0x90, 0x84, 0x24, 0x24, 0x21, 0x09, 0x49, 0x48, 0x42, 0x12, 0x92, 0x90, 
  0x04, 0x00, 0x24, 0x21, 0x09, 0x49, 0x48, 0x42, 0x12, 0x48, 0x42, 0x12, 
  0x92, 0x90, 0x84, 0x24, 0x24, 0x21, 0x09, 0x49, 0x48, 0x42, 0x12, 0x92, 
  0x90, 0x84, 0x24, 0x24, 0x21, 0x09, 0x49, 0x48, 0x42, 0x12, 0x00, 0x90, 
  0x84, 0x24, 0x24, 0x21, 0x09, 0x49, 0x24, 0x21, 0x09, 0x49, 0x48, 0x42, 
  0x12, 0x92, 0x90, 0x84, 0x24, 0x24, 0x21, 0x09, 0x49, 0x48, 0x42, 0x12, 
  0x92, 0x90, 0x84, 0x24, 0x24, 0x21, 0x09, 0x00, 0x48, 0x42, 0x12, 0x92, 
  0x90, 0x84, 0x24, 0x92, 0x90, 0x84, 0x24, 0x24, 0x21, 0x09, 0x49, 0x48, 
  0x42, 0x12, 0x92, 0x90, 0x84, 0x24, 0x24, 0x21, 0x09, 0x49, 0x48, 0x42, 
  0x12, 0x92, 0x00, 0x00, 0x00, 0x24, 0x21, 0x09, 0x49, 0x48, 0x42, 0x12, 
  0x48, 0x42, 0x12, 0x92, 0x90, 0x84, 0x24, 0x24, 0x21, 0x09, 0x49, 0x48, 
  0x42, 0x12, 0x92, 0x90, 0x84, 0x24, 0x24, 0x21, 0x09, 0x49, 0x48, 0x02, 
  0x00, 0x00, 0x90, 0x84, 0x24, 0x24, 0x21, 0x09, 0x49, 0x24, 0x21, 0x09, 
  0x49, 0x48, 0x42, 0x12, 0x92, 0x90, 0x84, 0x24, 0x24, 0x21, 0x09, 0x49, 
  0x48, 0x42, 0x12, 0x92, 0x90, 0x84, 0x24, 0x24, 0x01, 0x00, 0x00, 0x48, 
  0x42, 0x12, 0x92, 0x90, 0x84, 0x24, 0x92, 0x90, 0x84, 0x24, 0x24, 0x21, 
  0x09, 0x49, 0x48, 0x42, 0x12, 0x92, 0x90, 0x84, 0x24, 0x24, 0x21, 0x09, 
  0x49, 0x48, 0x42, 0x12, 0x92, 0x00, 0x00, 0x00, 0x24, 0x21, 0x09, 0x49, 
  0x48, 0x42, 0x12, 0x48, 0x42, 0x12, 0x92, 0x90, 0x84, 0x24, 0x24, 0x21, 
  0x09, 0x49, 0x48, 0x42, 0x12, 0x92, 0x90, 0x84, 0x24, 0x24, 0x21, 0x09, 
  0x49, 0x48, 0x02, 0x00, 0x00, 0x90, 0x84, 0x24, 0x24, 0x21, 0x09, 0x49, 
  0x24, 0x21, 0x09, 0x49, 0x48, 0x42, 0x12, 0x92, 0x90, 0x84, 0x24, 0x24, 
  0x21, 0x09, 0x49, 0x48, 0x42, 0x12, 0x92, 0x90, 0x84, 0x24, 0x24, 0x01, 
  0x00, 0x00, 0x48, 0x42, 0x12, 0x92, 0x90, 0x84, 0x24, 0x92, 0x90, 0x84, 
  0x24, 0x24, 0x21, 0x09, 0x49, 0x48, 0x42, 0x12, 0x92, 0x90, 0x84, 0x24, 
  0x24, 0x21, 0x09, 0x49, 0x48, 0x42, 0x12, 0x92, 0x00, 0x00, 0x00, 0x24, 
  0x21, 0x09, 0x49, 0x48, 0x42, 0x12, 0x48, 0x42, 0x12, 0x92, 0x90, 0x84, 
  0x24, 0x24, 0x21, 0x09, 0x49, 0x48, 0x42, 0x12, 0x92, 0x90, 0x84, 0x24, 
  0x24, 0x21, 0x09, 0x49, 0x48, 0x02, 0x00, 0x00, 0x90, 0x84, 0x24, 0x24, 
  0x21, 0x09, 0x49, 0x24, 0x21, 0x09, 0x49, 0x48, 0x42, 0x12, 0x92, 0x90, 
  0x84, 0x24, 0x24, 0x21, 0x09, 0x49, 0x48, 0x42, 0x12, 0x92, 0x90, 0x84, 
  0x24, 0x24, 0x01, 0x00, 0x00, 0x48, 0x42, 0x12, 0x92, 0x90, 0x84, 0x24, 
  0x92, 0x90, 0x84, 0x24, 0x24, 0x21, 0x09, 0x49, 0x48, 0x42, 0x12, 0x92, 
  0x90, 0x84, 0x24, 0x24, 0x21, 0x09, 0x49, 0x48, 0x42, 0x12, 0x92, 0x00, 
  0x00, 0x00, 0x24, 0x21, 0x09, 0x49, 0x48, 0x42, 0x12, 0x48, 0x42, 0x12, 
  0x92, 0x90, 0x84, 0x24, 0x24, 0x21, 0x09, 0x49, 0x48, 0x42, 0x12, 0x92, 
  0x90, 0x84, 0x24, 0x24, 0x21, 0x09, 0x49, 0x48, 0x02, 0x00, 0x00, 0x90, 
  0x84, 0x24, 0x24, 0x21, 0x09, 0x49, 0x24, 0x21, 0x09, 0x49, 0x48, 0x42, 
  0x12, 0x92, 0x90, 0x84, 0x24, 0x24, 0x21, 0x09, 0x49, 0x48, 0x42, 0x12, 
  0x92, 0x90, 0x84, 0x24, 0x24, 0x01, 0x00, 0x00, 0x48, 0x42, 0x12, 0x92, 
  0x90, 0x84, 0x24, 0x92, 0x90, 0x84, 0x24, 0x24, 0x21, 0x09, 0x49, 0x48, 
  0x42, 0x12, 0x92, 0x90, 0x84, 0x24, 0x24, 0x21, 0x09, 0x49, 0x48, 0x42, 
  0x12, 0x92, 0x00, 0x00, 0x00, 0x24, 0x21, 0x09, 0x49, 0x48, 0x42, 0x12, 
  0x48, 0x42, 0x12, 0x92, 0x90, 0x84, 0x24, 0x24, 0x21, 0x09, 0x49, 0x48, 
  0x42, 0x12, 0x92, 0x90, 0x84, 0x24, 0x24, 0x21, 0x09, 0x49, 0x48, 0x02, 
  0x00, 0x00, 0x90, 0x84, 0x24, 0x24, 0x21, 0x09, 0x49, 0x24, 0x21, 0x09, 
  0x49, 0x48, 0x42, 0x12, 0x92, 0x90, 0x84, 0x24, 0x24, 0x21, 0x09, 0x49, 
  0x48, 0x42, 0x12, 0x92, 0x90, 0x84, 0x24, 0x24, 0x01, 0x00, 0x00, 0x48, 
  0x42, 0x12, 0x92, 0x90, 0x84, 0x24, 0x92, 0x90, 0x84, 0x24, 0x24, 0x21, 
  0x09, 0x49, 0x48, 0x42, 0x12, 0x92, 0x90, 0x84, 0x24, 0x24, 0x21, 0x09, 
  0x49, 0x48, 0x42, 0x12, 0x92, 0x00, 0x00, 0x00, 0x24, 0x21, 0x09, 0x49, 
  0x48, 0x42, 0x12, 0x48, 0x42, 0x12, 0x92, 0x90, 0x84, 0x24, 0x24, 0x21, 
  0x09, 0x49, 0x48, 0x42, 0x12, 0x92, 0x90, 0x84, 0x24, 0x24, 0x21, 0x09, 
  0x49, 0x48, 0x02, 0x00, 0x00, 0x90, 0x84, 0x24, 0x24, 0x21, 0x09, 0x49, 
  0x24, 0x21, 0x09, 0x49, 0x48, 0x42, 0x12, 0x92, 0x90, 0x84, 0x24, 0x24, 
  0x21, 0x09, 0x49, 0x48, 0x42, 0x12, 0x92, 0x90, 0x84, 0x24, 0x24, 0x01, 
  0x00, 0x00, 0x48, 0x42, 0x12, 0x92, 0x90, 0x84, 0x24, 0x92, 0x90, 0x84, 
  0x24, 0x24, 0x21, 0x09, 0x49, 0x48, 0x42, 0x12, 0x92, 0x90, 0x84, 0x24, 
  0x24, 0x21, 0x09, 0x49, 0x48, 0x42, 0x12, 0x92, 0x00, 0x00, 0x00, 0x24, 
  0x21, 0x09, 0x49, 0x48, 0x42, 0x12, 0x48, 0x42, 0x12, 0x92, 0x90, 0x84, 
  0x24, 0x24, 0x21, 0x09, 0x49, 0x48, 0x42, 0x12, 0x92, 0x90, 0x84, 0x24, 
  0x24, 0x21, 0x09, 0x49, 0x48, 0x02, 0x00, 0x00, 0x90, 0x84, 0x24, 0x24, 
  0x21, 0x09, 0x49, 0x24, 0x21, 0x09, 0x49, 0x48, 0x42, 0x12, 0x92, 0x90, 
  0x84, 0x24, 0x24, 0x21, 0x09, 0x49, 0x48, 0x42, 0x12, 0x92, 0x90, 0x84, 
  0x24, 0x24, 0x01, 0x00, 0x00, 0x48, 0x42, 0x12, 0x92, 0x90, 0x84, 0x24, 
  0x92, 0x90, 0x84, 0x24, 0x24, 0x21, 0x09, 0x49, 0x48, 0x42, 0x12, 0x92, 
  0x90, 0x84, 0x24, 0x24, 0x21, 0x09, 0x49, 0x48, 0x42, 0x12, 0x92, 0x00, 
  0x00, 0x00, 0x24, 0x21, 0x09, 0x49, 0x48, 0x42, 0x12, 0x48, 0x42, 0x12, 
  0x92, 0x90, 0x84, 0x24, 0x24, 0x21, 0x09, 0x49, 0x48, 0x42, 0x12, 0x92, 
  0x90, 0x84, 0x24, 0x24, 0x21, 0x09, 0x49, 0x48, 0x02, 0x00, 0x00, 0x90, 
  0x84, 0x24, 0x24, 0x21, 0x09, 0x49, 0x24, 0x21, 0x09, 0x49, 0x48, 0x42, 
  0x12, 0x92, 0x90, 0x84, 0x24, 0x24, 0x21, 0x09, 0x49, 0x48, 0x42, 0x12, 
  0x92, 0x90, 0x84, 0x24, 0x24, 0x01, 0x00, 0x00, 0x48, 0x42, 0x12, 0x92, 
  0x90, 0x84, 0x24, 0x92, 0x90, 0x84, 0x24, 0x24, 0x21, 0x09, 0x49, 0x48, 
  0x42, 0x12, 0x92, 0x90, 0x84, 0x24, 0x24, 0x21, 0x09, 0x49, 0x48, 0x42, 
  0x12, 0x92, 0x00, 0x00, 0x00, 0x24, 0x21, 0x09, 0x49, 0x48, 0x42, 0x12, 
  0x48, 0x42, 0x12, 0x92, 0x90, 0x84, 0x24, 0x24, 0x21, 0x09, 0x49, 0x48, 
  0x42, 0x12, 0x92, 0x90, 0x84, 0x24, 0x24, 0x21, 0x09, 0x49, 0x48, 0x02, 
  0x00, 0x00, 0x90, 0x84, 0x24, 0x24, 0x21, 0x09, 0x49, 0x24, 0x21, 0x09, 
  0x49, 0x48, 0x42, 0x12, 0x92, 0x90, 0x84, 0x24, 0x24, 0x21, 0x09, 0x49, 
  0x48, 0x42, 0x12, 0x92, 0x90, 0x84, 0x24, 0x24, 0x01, 0x00, 0x00, 0x48, 
  0x42, 0x12, 0x92, 0x90, 0x84, 0x24, 0x92, 0x90, 0x84, 0x24, 0x24, 0x21, 
  0x09, 0x49, 0x48, 0x42, 0x12, 0x92, 0x90, 0x84, 0x24, 0x24, 0x21, 0x09, 
  0x49, 0x48, 0x42, 0x12, 0x92, 0x00, 0x00, 0x00, 0x24, 0x21, 0x09, 0x49, 
  0x48, 0x42, 0x12, 0x48, 0x42, 0x12, 0x92, 0x90, 0x84, 0x24, 0x24, 0x21, 
  0x09, 0x49, 0x48, 0x42, 0x12, 0x92, 0x90, 0x84, 0x24, 0x24, 0x21, 0x09, 
  0x49, 0x48, 0x02, 0x00, 0x00, 0x90, 0x84, 0x24, 0x24, 0x21, 0x09, 0x49, 
  0x00, 0x20, 0x09, 0x49, 0x00, 0x40, 0x12, 0x92, 0x00, 0x80, 0x24, 0x24, 
  0x21, 0x09, 0x49, 0x48, 0x42, 0x12, 0x92, 0x90, 0x84, 0x24, 0x24, 0x01, 
  0x00, 0x00, 0x00, 0x40, 0x12, 0x92, 0x90, 0x84, 0x24, 0x00, 0x90, 0x84, 
  0x24, 0x00, 0x20, 0x09, 0x49, 0x00, 0x40, 0x12, 0x92, 0x90, 0x84, 0x24, 
  0x24, 0x21, 0x09, 0x49, 0x48, 0x42, 0x12, 0x92, 0x00, 0x00, 0x00, 0x00, 
  0x20, 0x09, 0x49, 0x48, 0x42, 0x12, 0x00, 0x40, 0x12, 0x92, 0x00, 0x80, 
  0x24, 0x24, 0x01, 0x00, 0x49, 0x48, 0x42, 0x12, 0x92, 0x90, 0x84, 0x24, 
  0x24, 0x21, 0x09, 0x49, 0x48, 0x02, 0x00, 0x00, 0x00, 0x80, 0x24, 0x24, 
  0x21, 0x09, 0x49, 0x00, 0x20, 0x09, 0x49, 0x00, 0x40, 0x12, 0x92, 0x00, 
  0x80, 0x24, 0x24, 0x21, 0x09, 0x49, 0x48, 0x42, 0x12, 0x92, 0x90, 0x84, 
  0x24, 0x24, 0x01, 0x00, 0x00, 0x00, 0x40, 0x12, 0x92, 0x90, 0x84, 0x24, 
  0x00, 0x90, 0x84, 0x24, 0x00, 0x20, 0x09, 0x49, 0x00, 0x40, 0x12, 0x92, 
  0x90, 0x84, 0x24, 0x24, 0x21, 0x09, 0x49, 0x48, 0x42, 0x12, 0x92, 0x00, 
  0x00, 0x00, 0x00, 0x20, 0x09, 0x49, 0x48, 0x42, 0x12, 0x00, 0x40, 0x12, 
  0x92, 0x00, 0x80, 0x24, 0x24, 0x01, 0x00, 0x49, 0x48, 0x42, 0x12, 0x92, 
  0x90, 0x84, 0x24, 0x24, 0x21, 0x09, 0x49, 0x48, 0x02, 0x00, 0x00, 0x00, 
  0x80, 0x24, 0x24, 0x21, 0x09, 0x49, 0x00, 0x00, 0x00, 0x00, 0x00, 0x00, 
  0x00, 0x00, 0x00, 0x00, 0x00, 0x00, 0x00, 0x00, 0x49, 0x48, 0x42, 0x12, 
  0x92, 0x90, 0x84, 0x24, 0x24, 0x01, 0x00, 0x00, 0x00, 0x40, 0x12, 0x92, 
  0x90, 0x84, 0x24, 0x00, 0x00, 0x00, 0x00, 0x00, 0x00, 0x00, 0x00, 0x00, 
  0x00, 0x00, 0x00, 0x00, 0x80, 0x24, 0x24, 0x21, 0x09, 0x49, 0x48, 0x42, 
  0x12, 0x92, 0x00, 0x00, 0x00, 0x00, 0x20, 0x09, 0x49, 0x48, 0x42, 0x12, 
  0x00, 0x00, 0x00, 0x00, 0x00, 0x00, 0x00, 0x00, 0x00, 0x00, 0x00, 0x00, 
  0x00, 0x00, 0x92, 0x90, 0x84, 0x24, 0x24, 0x21, 0x09, 0x49, 0x48, 0x02, 
  0x00, 0x00, 0x00, 0x80, 0x24, 0x24, 0x21, 0x09, 0x49, 0x00, 0x00, 0x00, 
  0x00, 0x00, 0x00, 0x00, 0x00, 0x00, 0x00, 0x00, 0x00, 0x00, 0x00, 0x49, 
  0x48, 0x42, 0x12, 0x92, 0x90, 0x84, 0x24, 0x24, 0x01, 0x00, 0x00, 0x00, 
  0x40, 0x12, 0x92, 0x90, 0x84, 0x24, 0x00, 0x00, 0x00, 0x00, 0x00, 0x00, 
  0x00, 0x00, 0x00, 0x00, 0x00, 0x00, 0x00, 0x80, 0x24, 0x24, 0x21, 0x09, 
  0x49, 0x48, 0x42, 0x12, 0x92, 0x00, 0x00, 0x00, 0x00, 0x20, 0x09, 0x49, 
  0x48, 0x42, 0x12, 0x00, 0x00, 0x00, 0x00, 0x00, 0x00, 0x00, 0x00, 0x00, 
  0x00, 0x00, 0x00, 0x00, 0x00, 0x92, 0x90, 0x84, 0x24, 0x24, 0x21, 0x09, 
  0x49, 0x48, 0x02, 0x00, 0x00, 0x00, 0x80, 0x24, 0x24, 0x21, 0x09, 0x49, 
  0x00, 0x00, 0x00, 0x00, 0x00, 0x00, 0x00, 0x00, 0x00, 0x00, 0x00, 0x00, 
  0x00, 0x00, 0x00, 0x48, 0x42, 0x12, 0x92, 0x90, 0x84, 0x24, 0x24, 0x01, 
  0x00, 0x00, 0x00, 0x00, 0x00, 0x00, 0x90, 0x84, 0x24, 0x00, 0x00, 0x00, 
  0x00, 0x00, 0x00, 0x00, 0x00, 0x00, 0x00, 0x00, 0x00, 0x00, 0x00, 0x00, 
  0x24, 0x21, 0x09, 0x49, 0x48, 0x42, 0x12, 0x92, 0x00, 0x00, 0x00, 0x00, 
  0x00, 0x00, 0x00, 0x48, 0x42, 0x12, 0x00, 0x00, 0x00, 0x00, 0x00, 0x00, 
  0x00, 0x00, 0x00, 0x00, 0x00, 0x00, 0x00, 0x00, 0x00, 0x90, 0x84, 0x24, 
  0x24, 0x21, 0x09, 0x49, 0x48, 0x02, 0x00, 0x00, 0x00, 0x00, 0x00, 0x00, 
  0x20, 0x09, 0x49, 0x00, 0x00, 0x00, 0x00, 0x00, 0x00, 0x00, 0x00, 0x00, 
  0x00, 0x00, 0x00, 0x00, 0x00, 0x00, 0x48, 0x42, 0x12, 0x92, 0x90, 0x84, 
  0x24, 0x24, 0x01, 0x00, 0x00, 0x00, 0x00, 0x00, 0x00, 0x90, 0x84, 0x24, 
  0x00, 0x00, 0x00, 0x00, 0x00, 0x00, 0x00, 0x00, 0x00, 0x00, 0x00, 0x00, 
  0x00, 0x00, 0x00, 0x24, 0x21, 0x09, 0x49, 0x48, 0x42, 0x12, 0x92, 0x00, 
  0x00, 0x00, 0x00, 0x00, 0x00, 0x00, 0x48, 0x42, 0x12, 0x00, 0x00, 0x00, 
  0x00, 0x00, 0x00, 0x00, 0x00, 0x00, 0x00, 0x00, 0x00, 0x00, 0x00, 0x00, 
  0x90, 0x84, 0x24, 0x24, 0x21, 0x09, 0x49, 0x48, 0x02, 0x00, 0x00, 0x00, 
  0x00, 0x00, 0x00, 0x20, 0x09, 0x49, 0x00, 0x00, 0x00, 0x00, 0x00, 0x00, 
  0x00, 0x00, 0x00, 0x00, 0x00, 0x00, 0x00, 0x00, 0x00, 0x48, 0x42, 0x12, 
  0x92, 0x90, 0x84, 0x24, 0x24, 0x01, 0x00, 0x00, 0x00, 0x00, 0x00, 0x00, 
  0x00, 0x00, 0x00, 0x00, 0x00, 0x00, 0x00, 0x00, 0x00, 0x00, 0x00, 0x00, 
  0x00, 0x00, 0x00, 0x00, 0x00, 0x00, 0x24, 0x21, 0x09, 0x49, 0x48, 0x42, 
  0x12, 0x92, 0x00, 0x00, 0x00, 0x00, 0x00, 0x00, 0x00, 0x00, 0x00, 0x00, 
  0x00, 0x00, 0x00, 0x00, 0x00, 0x00, 0x00, 0x00, 0x00, 0x00, 0x00, 0x00, 
  0x00, 0x00, 0x00, 0x90, 0x84, 0x24, 0x24, 0x21, 0x09, 0x49, 0x48, 0x02, 
  0x00, 0x00, 0x00, 0x00, 0x00, 0x00, 0x00, 0x00, 0x00, 0x00, 0x00, 0x00, 
  0x00, 0x00, 0x00, 0x00, 0x00, 0x00, 0x00, 0x00, 0x00, 0x00, 0x00, 0x00, 
  0x48, 0x42, 0x12, 0x92, 0x90, 0x84, 0x24, 0x24, 0x01, 0x00, 0x00, 0x00, 
  0x00, 0x00, 0x00, 0x00, 0x00, 0x00, 0x00, 0x00, 0x00, 0x00, 0x00, 0x00, 
  0x00, 0x00, 0x00, 0x00, 0x00, 0x00, 0x00, 0x00, 0x00, 0x24, 0x21, 0x09, 
  0x49, 0x48, 0x42, 0x12, 0x92, 0x00, 0x00, 0x00, 0x00, 0x00, 0x00, 0x00, 
  0x00, 0x00, 0x00, 0x00, 0x00, 0x00, 0x00, 0x00, 0x00, 0x00, 0x00, 0x00, 
  0x00, 0x00, 0x00, 0x00, 0x00, 0x00, 0x90, 0x84, 0x24, 0x24, 0x21, 0x09, 
  0x49, 0x48, 0x02, 0x00, 0x00, 0x00, 0x00, 0x00, 0x00, 0x00, 0x00, 0x00, 
  0x00, 0x00, 0x00, 0x00, 0x00, 0x00, 0x00, 0x00, 0x00, 0x00, 0x00, 0x00, 
  0x00, 0x00, 0x00, 0x48, 0x42, 0x12, 0x92, 0x90, 0x84, 0x24, 0x24, 0x01, 
  0x00, 0x00, 0x00, 0x00, 0x00, 0x00, 0x00, 0x00, 0x00, 0x00, 0x00, 0x00, 
  0x00, 0x00, 0x00, 0x00, 0x00, 0x00, 0x00, 0x00, 0x00, 0x00, 0x00, 0x00, 
  0x24, 0x21, 0x09, 0x49, 0x48, 0x42, 0x12, 0x92, 0x00, 0x00, 0x00, 0x00, 
  0x00, 0x00, 0x00, 0x00, 0x00, 0x00, 0x00, 0x00, 0x00, 0x00, 0x00, 0x00, 
  0x00, 0x00, 0x00, 0x00, 0x00, 0x00, 0x00, 0x00, 0x00, 0x90, 0x84, 0x24, 
  0x24, 0x21, 0x09, 0x49, 0x48, 0x02, 0x00, 0x00, 0x00, 0x00, 0x00, 0x00, 
  0x00, 0x00, 0x00, 0x00, 0x00, 0x00, 0x00, 0x00, 0x00, 0x00, 0x00, 0x00, 
  0x00, 0x00, 0x00, 0x00, 0x00, 0x00, 0x48, 0x42, 0x12, 0x92, 0x90, 0x84, 
  0x24, 0x24, 0x01, 0x00, 0x00, 0x00, 0x00, 0x00, 0x00, 0x00, 0x00, 0x00, 
  0x00, 0x00, 0x00, 0x00, 0x00, 0x00, 0x00, 0x00, 0x00, 0x00, 0x00, 0x00, 
  0x00, 0x00, 0x00, 0x24, 0x21, 0x09, 0x49, 0x48, 0x42, 0x12, 0x92, 0x00, 
  0x00, 0x00, 0x00, 0x00, 0x00, 0x00, 0x00, 0x00, 0x00, 0x00, 0x00, 0x00, 
  0x00, 0x00, 0x00, 0x00, 0x00, 0x00, 0x00, 0x00, 0x00, 0x00, 0x00, 0x00, 
  0x00, 0x80, 0x24, 0x24, 0x21, 0x09, 0x49, 0x48, 0x02, 0x00, 0x00, 0x00, 
  0x00, 0x00, 0x00, 0x00, 0x00, 0x00, 0x00, 0x00, 0x00, 0x00, 0x00, 0x00, 
  0x00, 0x00, 0x00, 0x00, 0x00, 0x00, 0x00, 0x00, 0x00, 0x00, 0x40, 0x12, 
  0x92, 0x90, 0x84, 0x24, 0x24, 0x01, 0x00, 0x00, 0x00, 0x00, 0x00, 0x00, 
  0x00, 0x00, 0x00, 0x00, 0x00, 0x00, 0x00, 0x00, 0x00, 0x00, 0x00, 0x00, 
  0x00, 0x00, 0x00, 0x00, 0x00, 0x00, 0x00, 0x20, 0x09, 0x49, 0x48, 0x42, 
  0x12, 0x92, 0x00, 0x00, 0x00, 0x00, 0x00, 0x00, 0x00, 0x00, 0x00, 0x00, 
  0x00, 0x00, 0x00, 0x00, 0x00, 0x00, 0x00, 0x00, 0x00, 0x00, 0x00, 0x00, 
  0x00, 0x00, 0x00, 0x00, 0x80, 0x24, 0x24, 0x21, 0x09, 0x49, 0x48, 0x02, 
  0x00, 0x00, 0x00, 0x00, 0x00, 0x00, 0x00, 0x00, 0x00, 0x00, 0x00, 0x00, 
  0x00, 0x00, 0x00, 0x00, 0x00, 0x00, 0x00, 0x00, 0x00, 0x00, 0x00, 0x00, 
  0x00, 0x40, 0x12, 0x92, 0x90, 0x84, 0x24, 0x24, 0x01, 0x00, 0x00, 0x00, 
  0x00, 0x00, 0x00, 0x00, 0x00, 0x00, 0x00, 0x00, 0x00, 0x00, 0x00, 0x00, 
  0x00, 0x00, 0x00, 0x00, 0x00, 0x00, 0x00, 0x00, 0x00, 0x00, 0x20, 0x09, 
  0x49, 0x48, 0x42, 0x12, 0x92, 0x00, 0x00, 0x00, 0x00, 0x00, 0x00, 0x00, 
  0x00, 0x00, 0x00, 0x00, 0x00, 0x00, 0x00, 0x00, 0x00, 0x00, 0x00, 0x00, 
  0x00, 0x00, 0x00, 0x00, 0x00, 0x00, 0x00, 0x00, 0x00, 0x00, 0x00, 0x00, 
  0x00, 0x48, 0x02, 0x00, 0x00, 0x00, 0x00, 0x00, 0x00, 0x00, 0x00, 0x00, 
  0x00, 0x00, 0x00, 0x00, 0x00, 0x00, 0x00, 0x00, 0x00, 0x00, 0x00, 0x00, 
  0x00, 0x00, 0x00, 0x00, 0x00, 0x00, 0x00, 0x00, 0x00, 0x00, 0x24, 0x01, 
  0x00, 0x00, 0x00, 0x00, 0x00, 0x00, 0x00, 0x00, 0x00, 0x00, 0x00, 0x00, 
  0x00, 0x00, 0x00, 0x00, 0x00, 0x00, 0x00, 0x00, 0x00, 0x00, 0x00, 0x00, 
  0x00, 0x00, 0x00, 0x00, 0x00, 0x00, 0x00, 0x92, 0x00, 0x00, 0x00, 0x00, 
  0x00, 0x00, 0x00, 0x00, 0x00, 0x00, 0x00, 0x00, 0x00, 0x00, 0x00, 0x00, 
  0x00, 0x00, 0x00, 0x00, 0x00, 0x00, 0x00, 0x00, 0x00, 0x00, 0x00, 0x00, 
  0x00, 0x00, 0x00, 0x00, 0x48, 0x02, 0x00, 0x00, 0x00, 0x00, 0x00, 0x00, 
  0x00, 0x00, 0x00, 0x00, 0x00, 0x00, 0x00, 0x00, 0x00, 0x00, 0x00, 0x00, 
  0x00, 0x00, 0x00, 0x00, 0x00, 0x00, 0x00, 0x00, 0x00, 0x00, 0x00, 0x00, 
  0x00, 0x24, 0x01, 0x00, 0x00, 0x00, 0x00, 0x00, 0x00, 0x00, 0x00, 0x00, 
  0x00, 0x00, 0x00, 0x00, 0x00, 0x00, 0x00, 0x00, 0x00, 0x00, 0x00, 0x00, 
  0x00, 0x00, 0x00, 0x00, 0x00, 0x00, 0x00, 0x00, 0x00, 0x00, 0x92, 0x00, 
  0x00, 0x00, 0x00, 0x00, 0x00, 0x00, 0x00, 0x00, 0x00, 0x00, 0x00, 0x00, 
  0x00, 0x00, 0x00, 0x00, 0x00, 0x00, 0x00, 0x00, 0x00, 0x00, 0x00, 0x00, 
  0x00, 0x00, 0x00, 0x00, 0x00, 0x00, 0x00, 0x48, 0x02, 0x00, 0x00, 0x00, 
  0x00, 0x00, 0x00, 0x00, 0x00, 0x00, 0x00, 0x00, 0x00, 0x00, 0x00, 0x00, 
  0x00, 0x00, 0x00, 0x00, 0x00, 0x00, 0x00, 0x00, 0x00, 0x00, 0x00, 0x00, 
  0x00, 0x00, 0x00, 0x00, 0x24, 0x01, 0x00, 0x00, 0x00, 0x00, 0x00, 0x00, 
  0x00, 0x00, 0x00, 0x00, 0x00, 0x00, 0x00, 0x00, 0x00, 0x00, 0x00, 0x00, 
  0x00, 0x00, 0x00, 0x00, 0x00, 0x00, 0x00, 0x00, 0x00, 0x00, 0x00, 0x00, 
  0x00, 0x92, 0x00, 0x00, 0x00, 0x00, 0x00, 0x00, 0x00, 0x00, 0x00, 0x00, 
  0x00, 0x00, 0x00, 0x00, 0x00, 0x00, 0x00, 0x00, 0x00, 0x00, 0x00, 0x00, 
  0x00, 0x00, 0x00, 0x00, 0x00, 0x00, 0x00, 0x00, 0x00, 0x00, 0x48, 0x02, 
  0x00, 0x00, 0x00, 0x00, 0x00, 0x00, 0x00, 0x00, 0x00, 0x00, 0x00, 0x00, 
  0x00, 0x00, 0x00, 0x00, 0x00, 0x00, 0x00, 0x00, 0x00, 0x00, 0x00, 0x00, 
  0x00, 0x00, 0x00, 0x00, 0x00, 0x00, 0x00, 0x24, 0x01, 0x00, 0x00, 0x00, 
  0x00, 0x00, 0x00, 0x00, 0x00, 0x00, 0x00, 0x00, 0x00, 0x00, 0x00, 0x00, 
  0x00, 0x00, 0x00, 0x00, 0x00, 0x00, 0x00, 0x00, 0x00, 0x00, 0x00, 0x00, 
  0x00, 0x00, 0x00, 0x00, 0x92, 0x00, 0x00, 0x00, 0x00, 0x00, 0x00, 0x00, 
  0x00, 0x00, 0x00, 0x00, 0x00, 0x00, 0x00, 0x00, 0x00, 0x00, 0x00, 0x00, 
  0x00, 0x00, 0x00, 0x00, 0x00, 0x00, 0x00, 0x00, 0x00, 0x00, 0x00, 0x00, 
  0x00, 0x48, 0x02, 0x00, 0x00, 0x00, 0x00, 0x00, 0x00, 0x00, 0x00, 0x00, 
  0x00, 0x00, 0x00, 0x00, 0x00, 0x00, 0x00, 0x00, 0x00, 0x00, 0x00, 0x00, 
  0x00, 0x00, 0x00, 0x00, 0x00, 0x00, 0x00, 0x00, 0x00, 0x00, 0x24, 0x01, 
  0x00, 0x00, 0x00, 0x00, 0x00, 0x00, 0x00, 0x00, 0x00, 0x00, 0x00, 0x00, 
  0x00, 0x00, 0x00, 0x00, 0x00, 0x00, 0x00, 0x00, 0x00, 0x00, 0x00, 0x00, 
  0x00, 0x00, 0x00, 0x00, 0x00, 0x00, 0x00, 0x92, 0x00, 0x00, 0x00, 0x00, 
  0x00, 0x00, 0x00, 0x00, 0x00, 0x00, 0x00, 0x00, 0x00, 0x00, 0x00, 0x00, 
  0x00, 0x00, 0x00, 0x00, 0x00, 0x00, 0x00, 0x00, 0x00, 0x00, 0x00, 0x00, 
  0x00, 0x00, 0x00, 0x00, 0x48, 0x02, 0x00, 0x00, 0x00, 0x00, 0x00, 0x00, 
  0x00, 0x00, 0x00, 0x00, 0x00, 0x00, 0x00, 0x00, 0x00, 0x00, 0x00, 0x00, 
  0x00, 0x00, 0x00, 0x00, 0x00, 0x00, 0x00, 0x00, 0x00, 0x00, 0x00, 0x00, 
  0x00, 0x24, 0x01, 0x00, 0x00, 0x00, 0x00, 0x00, 0x00, 0x00, 0x00, 0x00, 
  0x00, 0x00, 0x00, 0x00, 0x00, 0x00, 0x00, 0x00, 0x00, 0x00, 0x00, 0x00, 
  0x00, 0x00, 0x00, 0x00, 0x00, 0x00, 0x00, 0x00, 0x00, 0x00, 0x92, 0x00, 
  0x00, 0x00, 0x00, 0x00, 0x00, 0x00, 0x00, 0x00, 0x00, 0x00, 0x00, 0x00, 
  0x00, 0x00, 0x00, 0x00, 0x00, 0x00, 0x00, 0x00, 0x00, 0x00, 0x00, 0x00, 
  0x00, 0x00, 0x00, 0x00, 0x00, 0x00, 0x00, 0x48, 0x02, 0x00, 0x00, 0x00, 
  0x00, 0x00, 0x00, 0x00, 0x00, 0x00, 0x00, 0x00, 0x00, 0x00, 0x00, 0x00, 
  0x00, 0x00, 0x00, 0x00, 0x00, 0x00, 0x00, 0x00, 0x00, 0x00, 0x00, 0x00, 
  0x00, 0x00, 0x00, 0x00, 0x24, 0x01, 0x00, 0x00, 0x00, 0x00, 0x00, 0x00, 
  0x00, 0x00, 0x00, 0x00, 0x00, 0x00, 0x00, 0x00, 0x00, 0x00, 0x00, 0x00, 
  0x00, 0x00, 0x00, 0x00, 0x00, 0x00, 0x00, 0x00, 0x00, 0x00, 0x00, 0x00, 
  0x00, 0x92, 0x00, 0x00, 0x00, 0x00, 0x00, 0x00, 0x00, 0x00, 0x00, 0x00, 
  0x00, 0x00, 0x00, 0x00, 0x00, 0x00, 0x00, 0x00, 0x00, 0x00, 0x00, 0x00, 
  0x00, 0x00, 0x00, 0x00, 0x00, 0x00, 0x00, 0x00, 0x00, 0x00, 0x48, 0x02, 
  0x00, 0x00, 0x00, 0x00, 0x00, 0x00, 0x00, 0x00, 0x00, 0x00, 0x00, 0x00, 
  0x00, 0x00, 0x00, 0x00, 0x00, 0x00, 0x00, 0x00, 0x00, 0x00, 0x00, 0x00, 
  0x00, 0x00, 0x00, 0x00, 0x00, 0x00, 0x00, 0x24, 0x01, 0x00, 0x00, 0x00, 
  0x00, 0x00, 0x00, 0x00, 0x00, 0x00, 0x00, 0x00, 0x00, 0x00, 0x00, 0x00, 
  0x00, 0x00, 0x00, 0x00, 0x00, 0x00, 0x00, 0x00, 0x00, 0x00, 0x00, 0x00, 
  0x00, 0x00, 0x00, 0x00, 0x92, 0x00, 0x00, 0x00, 0x00, 0x00, 0x00, 0x00, 
  0x00, 0x00, 0x00, 0x00, 0x00, 0x00, 0x00, 0x00, 0x00, 0x00, 0x00, 0x00, 
  0x00, 0x00, 0x00, 0x00, 0x00, 0x00, 0x00, 0x00, 0x00, 0x00, 0x00, 0x00, 
  0x00, 0x00, 0x00, 0x00, 0x00, 0x00, 0x00, 0x00, 0x00, 0x00, 0x00, 0x00, 
  0x00, 0x00, 0x00, 0x00, 0x00, 0x00, 0x00, 0x00, 0x00, 0x00, 0x00, 0x00, 
  0x00, 0x00, 0x00, 0x00, 0x00, 0x00, 0x00, 0x00, 0x00, 0x00, 0x00, 0x00, 
  0x00, 0x00, 0x00, 0x00, 0x00, 0x00, 0x00, 0x00, 0x00, 0x00, 0x00, 0x00, 
  0x00, 0x00, 0x00, 0x00, 0x00, 0x00, 0x00, 0x00, 0x00, 0x00, 0x00, 0x00, 
  0x00, 0x00, 0x00, 0x00, 0x00, 0x00, 0x00, 0x00, 0x00, 0x00, 0x00, 0x00, 
  0x00, 0x00, 0x00, 0x00, 0x00, 0x00, 0x02, 0x11, 0x88, 0x40, 0x04, 0x22, 
  0x10, 0x81, 0x08, 0x44, 0x20, 0x02, 0x11, 0x88, 0x40, 0x04, 0x22, 0x10, 
  0x81, 0x08, 0x44, 0x20, 0x02, 0x11, 0x88, 0x40, 0x04, 0x22, 0x10, 0x81, 
  0x08, 0x44, 0x20, 0x02, 0x11, 0x88, 0x40, 0x04, 0x22, 0x10, 0x81, 0x08, 
  0x44, 0x20, 0x02, 0x11, 0x88, 0x40, 0x04, 0x22, 0x10, 0x81, 0x08, 0x44, 
  0x20, 0x02, 0x11, 0x88, 0x40, 0x04, 0x22, 0x10, 0x81, 0x08, 0x44, 0x20, 
  0xFE, 0xF3, 0x9F, 0xFF, 0xFC, 0xE7, 0x3F, 0xFF, 0xF9, 0xCF, 0x7F, 0xFE, 
  0xF3, 0x9F, 0xFF, 0xFC, 0xE7, 0x3F, 0xFF, 0xF9, 0xCF, 0x7F, 0xFE, 0xF3, 
  0x9F, 0xFF, 0xFC, 0xE7, 0x3F, 0xFF, 0xF9, 0xCF, 0x7F, 0x02, 0x10, 0x80, 
  0x00, 0x04, 0x20, 0x00, 0x01, 0x08, 0x40, 0x00, 0x02, 0x10, 0x80, 0x00, 
  0x04, 0x20, 0x00, 0x01, 0x08, 0x40, 0x00, 0x02, 0x10, 0x80, 0x00, 0x04, 
  0x20, 0x00, 0x01, 0x08, 0x40, 0x00, 0x02, 0x10, 0x80, 0x00, 0x04, 0x20, 
  0x00, 0x01, 0x08, 0x40, 0x00, 0x02, 0x10, 0x80, 0x00, 0x04, 0x20, 0x00, 
  0x01, 0x08, 0x40, 0x00, 0x02, 0x10, 0x80, 0x00, 0x04, 0x20, 0x00, 0x01, 
  0x08, 0x40, 0x00, 0x00, 0x00, 0x00, 0x00, 0x00, 0x00, 0x00, 0x00, 0x00, 
  0x00, 0x00, 0x00, 0x00, 0x00, 0x00, 0x00, 0x00, 0x00, 0x00, 0x00, 0x00, 
  0x00, 0x00, 0x00, 0x00, 0x00, 0x00, 0x00, 0x00, 0x00, 0x00, 0x00, 0x00, 
  0x0E, 0x73, 0x98, 0xC3, 0x1C, 0xE6, 0x30, 0x87, 0x39, 0xCC, 0x61, 0x0E, 
  0x73, 0x98, 0xC3, 0x1C, 0xE6, 0x30, 0x87, 0x39, 0xCC, 0x61, 0xDC, 0xE1, 
  0x0F, 0xF1, 0x1C, 0xE6, 0x30, 0x87, 0x39, 0xCC, 0x61, 0x10, 0x82, 0x10, 
  0x84, 0x20, 0x04, 0x21, 0x08, 0x41, 0x08, 0x42, 0x10, 0x82, 0x10, 0x84, 
  0x20, 0x04, 0x21, 0x08, 0x41, 0x08, 0x42, 0x22, 0x12, 0x91, 0x90, 0x20, 
  0x04, 0x21, 0x08, 0x41, 0x08, 0x42, 0x20, 0x02, 0x11, 0x88, 0x40, 0x04, 
  0x22, 0x10, 0x81, 0x08, 0x44, 0x20, 0x02, 0x11, 0x88, 0x40, 0x04, 0x22, 
  0x10, 0x81, 0x08, 0x44, 0x22, 0x12, 0x91, 0x90, 0x40, 0x04, 0x22, 0x10, 
  0x81, 0x08, 0x44, 0x40, 0x02, 0x12, 0x90, 0x80, 0x04, 0x24, 0x20, 0x01, 
  0x09, 0x48, 0x40, 0x02, 0x12, 0x90, 0x80, 0x04, 0x24, 0x20, 0x01, 0x09, 
  0x48, 0x22, 0x12, 0x91, 0x90, 0x80, 0x04, 0x24, 0x20, 0x01, 0x09, 0x48, 
  0x80, 0x03, 0x1C, 0xE0, 0x00, 0x07, 0x38, 0xC0, 0x01, 0x0E, 0x70, 0x80, 
  0x03, 0x1C, 0xE0, 0x00, 0x07, 0x38, 0xC0, 0x01, 0x0E, 0x70, 0xDC, 0xE1, 
  0x08, 0x8F, 0x00, 0x07, 0x38, 0xC0, 0x01, 0x0E, 0x70, 0x00, 0x00, 0x00, 
  0x00, 0x00, 0x00, 0x00, 0x00, 0x00, 0x00, 0x00, 0x00, 0x00, 0x00, 0x00, 
  0x00, 0x00, 0x00, 0x00, 0x00, 0x00, 0x00, 0x00, 0x00, 0x00, 0x00, 0x00, 
  0x00, 0x00, 0x00, 0x00, 0x00, 0x00, 0x02, 0x71, 0x88, 0x43, 0x04, 0xE2, 
  0x10, 0x87, 0x08, 0xC4, 0x21, 0x0E, 0x71, 0x08, 0x41, 0xF8, 0xE3, 0x30, 
  0x87, 0x39, 0xCC, 0x61, 0x02, 0xE1, 0x0F, 0x77, 0x04, 0x42, 0x10, 0x82, 
  0xC0, 0x01, 0x0E, 0x02, 0x91, 0x90, 0x84, 0x04, 0x22, 0x21, 0x09, 0x09, 
  0x44, 0x42, 0x12, 0x92, 0x90, 0x88, 0x44, 0x04, 0x21, 0x08, 0x41, 0x08, 
  0x42, 0x02, 0x11, 0x91, 0x88, 0x04, 0x22, 0x22, 0x11, 0x41, 0x06, 0x32, 
  0xFE, 0x13, 0x91, 0x88, 0xFC, 0x27, 0x22, 0x11, 0xF9, 0x4F, 0x44, 0x22, 
  0x12, 0x91, 0x88, 0x44, 0x04, 0x22, 0x10, 0x81, 0x08, 0x44, 0xFE, 0x13, 
  0x91, 0x88, 0xFC, 0x27, 0x22, 0x11, 0x41, 0x08, 0x42, 0x02, 0x10, 0x91, 
  0x88, 0x04, 0x20, 0x22, 0x11, 0x09, 0x40, 0x44, 0x22, 0x12, 0x91, 0x88, 
  0x44, 0x04, 0x24, 0x20, 0x01, 0x09, 0x48, 0x02, 0x10, 0x91, 0x88, 0x04, 
  0x20, 0x22, 0x11, 0xF9, 0xCF, 0x7F, 0x02, 0x10, 0x8E, 0x70, 0x04, 0x20, 
  0x1C, 0xE1, 0x08, 0x40, 0x38, 0xC2, 0x11, 0x0E, 0x77, 0x38, 0x02, 0x38, 
  0xC0, 0x01, 0x0E, 0x70, 0x02, 0xE0, 0x08, 0x77, 0x04, 0xC0, 0x1D, 0xEE, 
  0x40, 0x00, 0x02, 0x00, 0x00, 0x00, 0x00, 0x00, 0x00, 0x00, 0x00, 0x00, 
  0x00, 0x00, 0x00, 0x00, 0x00, 0x00, 0x00, 0x00, 0x00, 0x00, 0x00, 0x00, 
  0x00, 0x00, 0x00, 0x00, 0x00, 0x00, 0x00, 0x00, 0x00, 0x00, 0x00, 0x00, 
  };
