<?xml version="1.0" encoding="UTF-8" standalone="no"?>
<!DOCTYPE svg PUBLIC "-//W3C//DTD SVG 1.1//EN" "http://www.w3.org/Graphics/SVG/1.1/DTD/svg11.dtd">
<svg width="100%" height="100%" viewBox="0 0 200 360" version="1.1" xmlns="http://www.w3.org/2000/svg" xmlns:xlink="http://www.w3.org/1999/xlink" xml:space="preserve" xmlns:serif="http://www.serif.com/" style="fill-rule:evenodd;clip-rule:evenodd;stroke-linecap:round;stroke-linejoin:round;stroke-miterlimit:1.5;">
    <style>
        @media (prefers-color-scheme:dark) {
            .invert-stroke[style*="stroke:black"] {
                   stroke: #fff !important
            }
        
            .invert-stroke[style*="stroke:white"] {
                   stroke: #000 !important
            }
        }
    </style>
    <g>
        <path d="M114,308.874L114,344.239" style="fill:none;stroke:rgb(228,97,97);stroke-width:12px;"/>
        <path d="M86,308.874L86,344.239" style="fill:none;stroke:rgb(97,150,228);stroke-width:12px;"/>
        <path d="M14.792,174.171C14.792,174.171 19.292,178.924 24.71,184.647C29.517,189.725 36.202,192.601 43.194,192.601C50.187,192.601 56.871,189.725 61.678,184.647L61.679,184.647C67.711,178.275 76.928,176.048 85.204,178.962C86.858,179.544 88.522,180.13 90.107,180.688C96.509,182.942 103.489,182.942 109.891,180.688C111.477,180.13 113.141,179.544 114.794,178.962C123.071,176.048 132.287,178.275 138.32,184.647C143.128,189.725 149.812,192.601 156.804,192.601C163.797,192.601 170.481,189.725 175.288,184.647C180.706,178.924 185.207,174.171 185.207,174.171L185.208,277.514L169.454,293.867L100,308.873L27.887,292.521L14.792,270.537L14.792,174.171Z" style="fill:rgb(228,97,97);"/>
        <path class="invert-stroke" d="M185.208,51.757C185.208,41.192 178.567,31.768 168.617,28.214C122.767,12.039 76.939,11.214 31.11,28.076C21.349,31.704 14.873,41.02 14.873,51.434C14.792,97.371 14.792,225.726 14.792,270.537C14.792,280.509 20.718,289.527 29.871,293.485C76.655,313.854 123.436,314.136 170.217,293.533C179.319,289.555 185.201,280.565 185.201,270.631C185.208,226.011 185.208,98.004 185.208,51.757Z" style="fill:none;stroke:black;stroke-width:12px;"/>
        <circle class="invert-stroke" cx="120.843" cy="104.963" r="36.843" style="fill:none;stroke:black;stroke-width:12px;"/>
        <path class="invert-stroke" d="M119.049,106.177L140.759,93.643" style="fill:none;stroke:black;stroke-width:8px;"/>
        <circle class="invert-stroke" cx="62.647" cy="98.149" r="6.813" style="fill:none;stroke:black;stroke-width:6px;"/>
        <path class="invert-stroke" d="M69.461,207.152C69.461,207.152 92.064,223.384 100,211.97C107.936,223.384 130.539,207.152 130.539,207.152" style="fill:none;stroke:white;stroke-width:3px;"/>
        <path class="invert-stroke" d="M45.931,81.6C45.931,81.6 49.399,68.495 59.036,68.495" style="fill:none;stroke:black;stroke-width:3px;"/>
    </g>
</svg>
