<?xml version="1.0" encoding="UTF-8" standalone="no"?>
<!DOCTYPE svg PUBLIC "-//W3C//DTD SVG 1.1//EN" "http://www.w3.org/Graphics/SVG/1.1/DTD/svg11.dtd">
<svg width="100%" height="100%" viewBox="0 0 1280 640" version="1.1" xmlns="http://www.w3.org/2000/svg" xmlns:xlink="http://www.w3.org/1999/xlink" xml:space="preserve" xmlns:serif="http://www.serif.com/" style="fill-rule:evenodd;clip-rule:evenodd;stroke-linejoin:round;stroke-miterlimit:2;">
    <rect x="0" y="0" width="1280" height="640" style="fill:rgb(250,233,232);"/>
    <path d="M204.848,108.568L112.676,160.462L109.446,177.335L169.995,398.418L397.309,328.015L341.163,117.634L326.701,100.183L276.881,96.216L204.848,108.568Z" style="fill:rgb(253,213,210);"/>
    <g>
        <g>
            <path d="M331.324,502.768L344.242,550.98C345.452,555.494 350.099,558.177 354.614,556.967C359.128,555.758 361.811,551.111 360.601,546.596L347.683,498.384C346.473,493.87 341.826,491.187 337.312,492.397C332.798,493.606 330.115,498.253 331.324,502.768Z" style="fill:rgb(228,97,97);"/>
            <path d="M293.153,512.996L306.072,561.207C307.281,565.722 311.928,568.405 316.443,567.195C320.957,565.986 323.64,561.338 322.431,556.824L309.512,508.612C308.303,504.098 303.655,501.415 299.141,502.624C294.627,503.834 291.944,508.481 293.153,512.996Z" style="fill:rgb(97,150,228);"/>
            <path d="M155.054,353.182C155.054,353.182 166.195,360.027 177.925,367.234C184.897,371.518 193.324,372.744 201.228,370.627C209.132,368.509 215.816,363.233 219.712,356.037C220.929,353.791 222.133,351.565 223.289,349.43C228.888,339.091 240.044,333.012 251.766,333.914C256.12,334.248 260.582,334.591 264.409,334.886C271.177,335.406 277.919,333.599 283.519,329.765C286.687,327.597 290.379,325.069 293.982,322.602C303.684,315.96 316.385,315.646 326.402,321.801C328.471,323.072 330.627,324.397 332.804,325.734C339.776,330.018 348.203,331.245 356.106,329.127C364.01,327.009 370.695,321.733 374.591,314.538C381.146,302.431 387.372,290.932 387.372,290.932L425.123,431.814L409.619,459.862L320.418,505.689L216.138,509.739L190.255,484.553L155.054,353.182Z" style="fill:rgb(228,97,97);"/>
            <path d="M350.838,121.861C346.053,104.001 330.557,91.077 312.128,89.577C312.117,89.576 312.106,89.575 312.095,89.574C241.658,84.116 177.035,100.235 119.053,141.138C119.046,141.144 119.038,141.149 119.031,141.154C104.164,151.715 97.432,170.408 102.152,188.022C118.818,250.664 165.706,425.653 182.075,486.745C186.59,503.596 200.685,516.153 217.942,518.703C291.599,529.747 357.66,512.455 415.835,465.734C429.41,454.885 435.277,437.029 430.779,420.242L350.838,121.861ZM334.479,126.244C334.479,126.244 334.479,126.244 334.479,126.244C351.372,189.289 398.13,363.793 414.42,424.624C414.42,424.625 414.42,424.625 414.42,424.626C417.177,434.916 413.579,445.863 405.254,452.51C405.248,452.515 405.241,452.52 405.235,452.525C350.916,496.151 289.225,512.266 220.449,501.953C220.442,501.952 220.435,501.951 220.428,501.95C209.846,500.391 201.203,492.693 198.434,482.361C182.066,421.276 135.183,246.304 118.515,183.653C118.514,183.649 118.512,183.644 118.511,183.639C115.624,172.864 119.74,161.43 128.831,154.967C183.471,116.426 244.39,101.318 310.766,106.458C322.055,107.382 331.547,115.301 334.479,126.244ZM350.838,121.861C350.838,121.861 350.838,121.86 350.838,121.86L350.838,121.861Z"/>
            <path d="M258.697,161.69C226.463,170.328 207.305,203.51 215.942,235.745C224.579,267.979 257.762,287.138 289.996,278.5C322.231,269.863 341.389,236.68 332.752,204.446C324.115,172.211 290.932,153.053 258.697,161.69ZM263.081,178.049C286.286,171.831 310.175,185.623 316.393,208.829C322.611,232.035 308.819,255.923 285.613,262.141C262.407,268.359 238.519,254.567 232.301,231.362C226.083,208.156 239.875,184.267 263.081,178.049Z"/>
            <path d="M275.889,226.563L302.182,202.887C304.497,200.802 304.684,197.23 302.599,194.915C300.514,192.599 296.942,192.412 294.626,194.497L268.334,218.173C266.018,220.258 265.831,223.83 267.916,226.146C270.001,228.461 273.574,228.648 275.889,226.563Z"/>
            <path d="M188.939,218.686C181.555,220.665 177.167,228.266 179.145,235.649C181.124,243.033 188.724,247.421 196.108,245.443C203.492,243.464 207.88,235.863 205.902,228.48C203.923,221.096 196.322,216.708 188.939,218.686ZM191.13,226.866C194,226.097 196.953,227.802 197.722,230.672C198.491,233.541 196.786,236.494 193.916,237.263C191.047,238.032 188.093,236.327 187.325,233.458C186.556,230.588 188.261,227.635 191.13,226.866Z"/>
            <path d="M240.881,380.154C240.881,380.154 254.5,385.284 266.873,385.292C274.866,385.298 282.264,383.115 285.877,376.78C292.173,380.46 299.672,378.651 306.591,374.65C317.302,368.456 326.532,357.204 326.532,357.204C327.272,356.3 327.139,354.965 326.235,354.224C325.331,353.484 323.996,353.617 323.256,354.521C323.256,354.521 314.569,365.146 304.471,370.984C298.351,374.524 291.678,376.438 286.387,371.969C285.858,371.522 285.143,371.362 284.473,371.541C283.804,371.721 283.264,372.217 283.029,372.869C280.682,379.384 273.946,381.063 266.876,381.058C255.212,381.05 242.376,376.193 242.376,376.193C241.283,375.78 240.061,376.332 239.648,377.425C239.235,378.518 239.788,379.741 240.881,380.154Z" style="fill:white;"/>
            <path d="M165.806,215.604C165.806,215.604 165.787,209.174 168.42,203.321C170.057,199.682 172.742,196.228 177.316,195.003C178.444,194.7 179.115,193.539 178.813,192.41C178.51,191.281 177.348,190.611 176.22,190.913C170.284,192.503 166.683,196.861 164.559,201.584C161.55,208.271 161.572,215.617 161.572,215.617C161.576,216.785 162.527,217.731 163.696,217.727C164.864,217.724 165.81,216.772 165.806,215.604Z"/>
        </g>
        <g transform="matrix(9.1864,0,0,9.1864,-1804.4,-4937.04)">
            <g transform="matrix(12,0,0,12,248.971,562.736)">
                <path d="M0.215,-0.079L0.215,-0.398L0.221,-0.398L0.448,-0.059C0.481,-0.01 0.503,0.005 0.539,0.005C0.588,0.005 0.615,-0.026 0.615,-0.085L0.615,-0.587C0.615,-0.64 0.586,-0.671 0.539,-0.671C0.492,-0.671 0.465,-0.64 0.465,-0.587L0.465,-0.272L0.458,-0.272L0.234,-0.607C0.202,-0.654 0.181,-0.671 0.146,-0.671C0.092,-0.671 0.065,-0.639 0.065,-0.577L0.065,-0.079C0.065,-0.027 0.093,0.005 0.141,0.005C0.188,0.005 0.215,-0.026 0.215,-0.079Z" style="fill-rule:nonzero;"/>
            </g>
            <g transform="matrix(12,0,0,12,257.133,562.736)">
                <path d="M0.284,-0.534C0.133,-0.534 0.033,-0.44 0.033,-0.287L0.033,-0.237C0.033,-0.078 0.133,0.013 0.284,0.013C0.434,0.013 0.534,-0.078 0.534,-0.237L0.534,-0.288C0.534,-0.44 0.434,-0.534 0.284,-0.534ZM0.284,-0.417C0.34,-0.417 0.372,-0.37 0.372,-0.288L0.372,-0.234C0.372,-0.152 0.34,-0.104 0.284,-0.104C0.228,-0.104 0.194,-0.152 0.194,-0.234L0.194,-0.288C0.194,-0.37 0.228,-0.417 0.284,-0.417Z" style="fill-rule:nonzero;"/>
            </g>
            <g transform="matrix(12,0,0,12,263.93,562.736)">
                <path d="M0.214,-0.081L0.214,-0.281C0.214,-0.356 0.249,-0.395 0.319,-0.397C0.343,-0.398 0.361,-0.403 0.373,-0.413C0.385,-0.424 0.392,-0.439 0.392,-0.461C0.392,-0.483 0.385,-0.5 0.372,-0.512C0.36,-0.523 0.343,-0.529 0.321,-0.529C0.271,-0.529 0.234,-0.5 0.216,-0.446L0.209,-0.446L0.209,-0.453C0.206,-0.5 0.18,-0.526 0.134,-0.526C0.084,-0.526 0.057,-0.495 0.057,-0.44L0.057,-0.081C0.057,-0.026 0.083,0.005 0.134,0.005C0.185,0.005 0.214,-0.026 0.214,-0.081Z" style="fill-rule:nonzero;"/>
            </g>
            <g transform="matrix(12,0,0,12,268.682,562.736)">
                <path d="M0.378,-0.083L0.386,-0.083L0.386,-0.069C0.39,-0.022 0.418,0.005 0.463,0.005C0.514,0.005 0.541,-0.025 0.541,-0.081L0.541,-0.62C0.541,-0.675 0.513,-0.706 0.462,-0.706C0.412,-0.706 0.384,-0.675 0.384,-0.62L0.384,-0.443L0.376,-0.443C0.357,-0.497 0.301,-0.529 0.229,-0.529C0.11,-0.529 0.037,-0.441 0.037,-0.294L0.037,-0.229C0.037,-0.083 0.11,0.006 0.229,0.006C0.301,0.006 0.36,-0.029 0.378,-0.083ZM0.199,-0.239L0.199,-0.284C0.199,-0.361 0.233,-0.408 0.29,-0.408C0.347,-0.408 0.384,-0.361 0.384,-0.291L0.384,-0.236C0.384,-0.161 0.349,-0.115 0.291,-0.115C0.233,-0.115 0.199,-0.161 0.199,-0.239Z" style="fill-rule:nonzero;"/>
            </g>
            <g transform="matrix(12,0,0,12,275.889,562.736)">
                <path d="M0.145,0.005C0.197,0.005 0.226,-0.027 0.226,-0.082L0.226,-0.213L0.333,-0.213C0.486,-0.213 0.58,-0.294 0.58,-0.44C0.58,-0.578 0.488,-0.667 0.342,-0.667L0.17,-0.667C0.094,-0.667 0.065,-0.636 0.065,-0.556L0.065,-0.082C0.065,-0.026 0.094,0.005 0.145,0.005ZM0.227,-0.333L0.227,-0.542L0.318,-0.542C0.384,-0.542 0.42,-0.504 0.42,-0.438C0.42,-0.36 0.383,-0.333 0.3,-0.333L0.227,-0.333Z" style="fill-rule:nonzero;"/>
            </g>
            <g transform="matrix(12,0,0,12,283.043,562.736)">
                <path d="M0.284,-0.534C0.133,-0.534 0.033,-0.44 0.033,-0.287L0.033,-0.237C0.033,-0.078 0.133,0.013 0.284,0.013C0.434,0.013 0.534,-0.078 0.534,-0.237L0.534,-0.288C0.534,-0.44 0.434,-0.534 0.284,-0.534ZM0.284,-0.417C0.34,-0.417 0.372,-0.37 0.372,-0.288L0.372,-0.234C0.372,-0.152 0.34,-0.104 0.284,-0.104C0.228,-0.104 0.194,-0.152 0.194,-0.234L0.194,-0.288C0.194,-0.37 0.228,-0.417 0.284,-0.417Z" style="fill-rule:nonzero;"/>
            </g>
            <g transform="matrix(12,0,0,12,289.84,562.736)">
                <path d="M0.284,-0.534C0.133,-0.534 0.033,-0.44 0.033,-0.287L0.033,-0.237C0.033,-0.078 0.133,0.013 0.284,0.013C0.434,0.013 0.534,-0.078 0.534,-0.237L0.534,-0.288C0.534,-0.44 0.434,-0.534 0.284,-0.534ZM0.284,-0.417C0.34,-0.417 0.372,-0.37 0.372,-0.288L0.372,-0.234C0.372,-0.152 0.34,-0.104 0.284,-0.104C0.228,-0.104 0.194,-0.152 0.194,-0.234L0.194,-0.288C0.194,-0.37 0.228,-0.417 0.284,-0.417Z" style="fill-rule:nonzero;"/>
            </g>
            <g transform="matrix(12,0,0,12,296.637,562.736)">
                <path d="M0.139,0.005C0.189,0.005 0.218,-0.025 0.218,-0.081L0.218,-0.62C0.218,-0.676 0.189,-0.706 0.139,-0.706C0.089,-0.706 0.061,-0.676 0.061,-0.62L0.061,-0.081C0.061,-0.025 0.089,0.005 0.139,0.005Z" style="fill-rule:nonzero;"/>
            </g>
            <g transform="matrix(12,0,0,12,248.971,574.736)">
                <path d="M0.152,-0.078C0.169,-0.016 0.201,0.004 0.25,0.004C0.297,0.004 0.331,-0.024 0.345,-0.078L0.437,-0.426L0.443,-0.426L0.534,-0.082C0.549,-0.021 0.582,0.004 0.633,0.004C0.682,0.004 0.711,-0.021 0.727,-0.078L0.857,-0.551C0.861,-0.563 0.863,-0.583 0.863,-0.597C0.863,-0.641 0.831,-0.672 0.785,-0.672C0.742,-0.672 0.714,-0.644 0.702,-0.584L0.623,-0.215L0.614,-0.215L0.525,-0.586C0.51,-0.646 0.485,-0.672 0.439,-0.672C0.394,-0.672 0.37,-0.647 0.355,-0.586L0.265,-0.215L0.257,-0.215L0.174,-0.584C0.161,-0.645 0.135,-0.672 0.092,-0.672C0.045,-0.672 0.013,-0.641 0.013,-0.596C0.013,-0.583 0.016,-0.561 0.021,-0.541L0.152,-0.078Z" style="fill-rule:nonzero;"/>
            </g>
            <g transform="matrix(12,0,0,12,259.137,574.736)">
                <path d="M0.34,-0.064L0.347,-0.064L0.347,-0.054C0.354,-0.016 0.381,0.005 0.421,0.005C0.47,0.005 0.497,-0.024 0.497,-0.078L0.497,-0.345C0.497,-0.462 0.416,-0.529 0.272,-0.529C0.211,-0.529 0.165,-0.519 0.13,-0.502C0.082,-0.479 0.061,-0.448 0.061,-0.416C0.061,-0.386 0.081,-0.363 0.115,-0.363C0.139,-0.363 0.155,-0.369 0.171,-0.379C0.199,-0.399 0.226,-0.414 0.262,-0.414C0.312,-0.414 0.34,-0.391 0.34,-0.347L0.34,-0.309L0.225,-0.309C0.104,-0.309 0.032,-0.249 0.032,-0.152C0.032,-0.058 0.101,0.006 0.203,0.006C0.265,0.006 0.315,-0.02 0.34,-0.064ZM0.186,-0.163C0.186,-0.2 0.214,-0.222 0.26,-0.222L0.34,-0.222L0.34,-0.171C0.34,-0.132 0.304,-0.101 0.258,-0.101C0.216,-0.101 0.186,-0.126 0.186,-0.163Z" style="fill-rule:nonzero;"/>
            </g>
            <g transform="matrix(12,0,0,12,265.647,574.736)">
                <path d="M0.099,-0.14C0.099,-0.035 0.149,0.012 0.257,0.012C0.297,0.012 0.328,0.004 0.349,-0.01C0.368,-0.023 0.378,-0.042 0.378,-0.064C0.378,-0.092 0.361,-0.109 0.337,-0.109C0.323,-0.109 0.315,-0.106 0.301,-0.106C0.268,-0.106 0.256,-0.122 0.256,-0.164L0.256,-0.396L0.295,-0.396C0.337,-0.396 0.36,-0.418 0.36,-0.456C0.36,-0.493 0.337,-0.515 0.295,-0.515L0.254,-0.515L0.254,-0.572C0.254,-0.625 0.228,-0.655 0.179,-0.655C0.13,-0.655 0.103,-0.625 0.103,-0.572L0.103,-0.515L0.08,-0.515C0.039,-0.515 0.015,-0.493 0.015,-0.456C0.015,-0.418 0.039,-0.396 0.08,-0.396L0.099,-0.396L0.099,-0.14Z" style="fill-rule:nonzero;"/>
            </g>
            <g transform="matrix(12,0,0,12,270.328,574.736)">
                <path d="M0.036,-0.231C0.036,-0.079 0.135,0.013 0.296,0.013C0.362,0.013 0.419,-0.002 0.455,-0.028C0.484,-0.046 0.501,-0.071 0.501,-0.099C0.501,-0.132 0.48,-0.152 0.449,-0.152C0.424,-0.152 0.414,-0.143 0.39,-0.128C0.37,-0.113 0.345,-0.105 0.307,-0.105C0.237,-0.105 0.196,-0.146 0.195,-0.208L0.195,-0.227L0.439,-0.227C0.495,-0.227 0.516,-0.249 0.516,-0.308C0.516,-0.438 0.418,-0.534 0.28,-0.534C0.133,-0.534 0.036,-0.437 0.036,-0.289L0.036,-0.231ZM0.195,-0.317L0.195,-0.318C0.195,-0.377 0.229,-0.417 0.284,-0.417C0.335,-0.417 0.368,-0.378 0.368,-0.318L0.368,-0.317L0.195,-0.317Z" style="fill-rule:nonzero;"/>
            </g>
            <g transform="matrix(12,0,0,12,276.938,574.736)">
                <path d="M0.214,-0.081L0.214,-0.281C0.214,-0.356 0.249,-0.395 0.319,-0.397C0.343,-0.398 0.361,-0.403 0.373,-0.413C0.385,-0.424 0.392,-0.439 0.392,-0.461C0.392,-0.483 0.385,-0.5 0.372,-0.512C0.36,-0.523 0.343,-0.529 0.321,-0.529C0.271,-0.529 0.234,-0.5 0.216,-0.446L0.209,-0.446L0.209,-0.453C0.206,-0.5 0.18,-0.526 0.134,-0.526C0.084,-0.526 0.057,-0.495 0.057,-0.44L0.057,-0.081C0.057,-0.026 0.083,0.005 0.134,0.005C0.185,0.005 0.214,-0.026 0.214,-0.081Z" style="fill-rule:nonzero;"/>
            </g>
            <g transform="matrix(12,0,0,12,284.063,574.736)">
                <path d="M0.552,0.005C0.604,0.005 0.633,-0.027 0.633,-0.082L0.633,-0.584C0.633,-0.64 0.604,-0.671 0.552,-0.671C0.5,-0.671 0.471,-0.64 0.471,-0.584L0.471,-0.402L0.227,-0.402L0.227,-0.584C0.227,-0.64 0.197,-0.671 0.146,-0.671C0.094,-0.671 0.065,-0.64 0.065,-0.584L0.065,-0.082C0.065,-0.026 0.094,0.005 0.146,0.005C0.197,0.005 0.227,-0.027 0.227,-0.082L0.227,-0.273L0.471,-0.273L0.471,-0.082C0.471,-0.026 0.5,0.005 0.552,0.005Z" style="fill-rule:nonzero;"/>
            </g>
            <g transform="matrix(12,0,0,12,292.43,574.736)">
                <path d="M0.036,-0.231C0.036,-0.079 0.135,0.013 0.296,0.013C0.362,0.013 0.419,-0.002 0.455,-0.028C0.484,-0.046 0.501,-0.071 0.501,-0.099C0.501,-0.132 0.48,-0.152 0.449,-0.152C0.424,-0.152 0.414,-0.143 0.39,-0.128C0.37,-0.113 0.345,-0.105 0.307,-0.105C0.237,-0.105 0.196,-0.146 0.195,-0.208L0.195,-0.227L0.439,-0.227C0.495,-0.227 0.516,-0.249 0.516,-0.308C0.516,-0.438 0.418,-0.534 0.28,-0.534C0.133,-0.534 0.036,-0.437 0.036,-0.289L0.036,-0.231ZM0.195,-0.317L0.195,-0.318C0.195,-0.377 0.229,-0.417 0.284,-0.417C0.335,-0.417 0.368,-0.378 0.368,-0.318L0.368,-0.317L0.195,-0.317Z" style="fill-rule:nonzero;"/>
            </g>
            <g transform="matrix(12,0,0,12,299.039,574.736)">
                <path d="M0.34,-0.064L0.347,-0.064L0.347,-0.054C0.354,-0.016 0.381,0.005 0.421,0.005C0.47,0.005 0.497,-0.024 0.497,-0.078L0.497,-0.345C0.497,-0.462 0.416,-0.529 0.272,-0.529C0.211,-0.529 0.165,-0.519 0.13,-0.502C0.082,-0.479 0.061,-0.448 0.061,-0.416C0.061,-0.386 0.081,-0.363 0.115,-0.363C0.139,-0.363 0.155,-0.369 0.171,-0.379C0.199,-0.399 0.226,-0.414 0.262,-0.414C0.312,-0.414 0.34,-0.391 0.34,-0.347L0.34,-0.309L0.225,-0.309C0.104,-0.309 0.032,-0.249 0.032,-0.152C0.032,-0.058 0.101,0.006 0.203,0.006C0.265,0.006 0.315,-0.02 0.34,-0.064ZM0.186,-0.163C0.186,-0.2 0.214,-0.222 0.26,-0.222L0.34,-0.222L0.34,-0.171C0.34,-0.132 0.304,-0.101 0.258,-0.101C0.216,-0.101 0.186,-0.126 0.186,-0.163Z" style="fill-rule:nonzero;"/>
            </g>
            <g transform="matrix(12,0,0,12,305.549,574.736)">
                <path d="M0.099,-0.14C0.099,-0.035 0.149,0.012 0.257,0.012C0.297,0.012 0.328,0.004 0.349,-0.01C0.368,-0.023 0.378,-0.042 0.378,-0.064C0.378,-0.092 0.361,-0.109 0.337,-0.109C0.323,-0.109 0.315,-0.106 0.301,-0.106C0.268,-0.106 0.256,-0.122 0.256,-0.164L0.256,-0.396L0.295,-0.396C0.337,-0.396 0.36,-0.418 0.36,-0.456C0.36,-0.493 0.337,-0.515 0.295,-0.515L0.254,-0.515L0.254,-0.572C0.254,-0.625 0.228,-0.655 0.179,-0.655C0.13,-0.655 0.103,-0.625 0.103,-0.572L0.103,-0.515L0.08,-0.515C0.039,-0.515 0.015,-0.493 0.015,-0.456C0.015,-0.418 0.039,-0.396 0.08,-0.396L0.099,-0.396L0.099,-0.14Z" style="fill-rule:nonzero;"/>
            </g>
            <g transform="matrix(12,0,0,12,310.231,574.736)">
                <path d="M0.036,-0.231C0.036,-0.079 0.135,0.013 0.296,0.013C0.362,0.013 0.419,-0.002 0.455,-0.028C0.484,-0.046 0.501,-0.071 0.501,-0.099C0.501,-0.132 0.48,-0.152 0.449,-0.152C0.424,-0.152 0.414,-0.143 0.39,-0.128C0.37,-0.113 0.345,-0.105 0.307,-0.105C0.237,-0.105 0.196,-0.146 0.195,-0.208L0.195,-0.227L0.439,-0.227C0.495,-0.227 0.516,-0.249 0.516,-0.308C0.516,-0.438 0.418,-0.534 0.28,-0.534C0.133,-0.534 0.036,-0.437 0.036,-0.289L0.036,-0.231ZM0.195,-0.317L0.195,-0.318C0.195,-0.377 0.229,-0.417 0.284,-0.417C0.335,-0.417 0.368,-0.378 0.368,-0.318L0.368,-0.317L0.195,-0.317Z" style="fill-rule:nonzero;"/>
            </g>
            <g transform="matrix(12,0,0,12,316.84,574.736)">
                <path d="M0.214,-0.081L0.214,-0.281C0.214,-0.356 0.249,-0.395 0.319,-0.397C0.343,-0.398 0.361,-0.403 0.373,-0.413C0.385,-0.424 0.392,-0.439 0.392,-0.461C0.392,-0.483 0.385,-0.5 0.372,-0.512C0.36,-0.523 0.343,-0.529 0.321,-0.529C0.271,-0.529 0.234,-0.5 0.216,-0.446L0.209,-0.446L0.209,-0.453C0.206,-0.5 0.18,-0.526 0.134,-0.526C0.084,-0.526 0.057,-0.495 0.057,-0.44L0.057,-0.081C0.057,-0.026 0.083,0.005 0.134,0.005C0.185,0.005 0.214,-0.026 0.214,-0.081Z" style="fill-rule:nonzero;"/>
            </g>
            <g transform="matrix(12,0,0,12,248.971,586.736)">
                <path d="M0.036,-0.137C0.036,-0.11 0.052,-0.082 0.08,-0.055C0.125,-0.012 0.207,0.015 0.299,0.015C0.466,0.015 0.573,-0.07 0.573,-0.201C0.573,-0.302 0.513,-0.363 0.389,-0.388L0.296,-0.408C0.234,-0.42 0.206,-0.446 0.206,-0.483C0.206,-0.525 0.243,-0.552 0.302,-0.552C0.352,-0.552 0.392,-0.532 0.426,-0.495C0.446,-0.475 0.467,-0.466 0.488,-0.466C0.526,-0.466 0.551,-0.49 0.551,-0.526C0.551,-0.556 0.536,-0.585 0.507,-0.611C0.462,-0.654 0.385,-0.679 0.3,-0.679C0.144,-0.679 0.044,-0.598 0.044,-0.47C0.044,-0.368 0.103,-0.306 0.223,-0.28L0.315,-0.259C0.385,-0.244 0.415,-0.221 0.415,-0.184C0.415,-0.138 0.377,-0.113 0.307,-0.113C0.258,-0.113 0.209,-0.133 0.169,-0.171C0.143,-0.195 0.123,-0.204 0.099,-0.204C0.064,-0.204 0.036,-0.176 0.036,-0.137Z" style="fill-rule:nonzero;"/>
            </g>
            <g transform="matrix(12,0,0,12,256.231,586.736)">
                <path d="M0.037,-0.233C0.037,-0.076 0.131,0.013 0.283,0.013C0.34,0.013 0.391,-0 0.43,-0.025C0.468,-0.048 0.492,-0.082 0.492,-0.114C0.492,-0.15 0.469,-0.174 0.433,-0.174C0.407,-0.174 0.393,-0.16 0.378,-0.148C0.355,-0.126 0.329,-0.112 0.295,-0.112C0.223,-0.112 0.199,-0.164 0.199,-0.241L0.199,-0.287C0.199,-0.36 0.229,-0.409 0.293,-0.409C0.327,-0.409 0.352,-0.396 0.372,-0.375C0.387,-0.362 0.403,-0.348 0.429,-0.348C0.466,-0.348 0.49,-0.375 0.49,-0.41C0.49,-0.441 0.468,-0.471 0.437,-0.492C0.397,-0.52 0.342,-0.534 0.283,-0.534C0.125,-0.534 0.037,-0.437 0.037,-0.295L0.037,-0.233Z" style="fill-rule:nonzero;"/>
            </g>
            <g transform="matrix(12,0,0,12,262.641,586.736)">
                <path d="M0.544,-0.081L0.544,-0.344C0.544,-0.461 0.48,-0.529 0.372,-0.529C0.3,-0.529 0.238,-0.489 0.221,-0.431L0.213,-0.431L0.213,-0.62C0.213,-0.675 0.185,-0.706 0.135,-0.706C0.084,-0.706 0.056,-0.675 0.056,-0.62L0.056,-0.081C0.056,-0.026 0.084,0.005 0.135,0.005C0.185,0.005 0.213,-0.026 0.213,-0.081L0.213,-0.289C0.213,-0.356 0.25,-0.399 0.305,-0.399C0.357,-0.399 0.387,-0.364 0.387,-0.303L0.387,-0.081C0.387,-0.026 0.415,0.005 0.466,0.005C0.516,0.005 0.544,-0.026 0.544,-0.081Z" style="fill-rule:nonzero;"/>
            </g>
            <g transform="matrix(12,0,0,12,269.801,586.736)">
                <path d="M0.036,-0.231C0.036,-0.079 0.135,0.013 0.296,0.013C0.362,0.013 0.419,-0.002 0.455,-0.028C0.484,-0.046 0.501,-0.071 0.501,-0.099C0.501,-0.132 0.48,-0.152 0.449,-0.152C0.424,-0.152 0.414,-0.143 0.39,-0.128C0.37,-0.113 0.345,-0.105 0.307,-0.105C0.237,-0.105 0.196,-0.146 0.195,-0.208L0.195,-0.227L0.439,-0.227C0.495,-0.227 0.516,-0.249 0.516,-0.308C0.516,-0.438 0.418,-0.534 0.28,-0.534C0.133,-0.534 0.036,-0.437 0.036,-0.289L0.036,-0.231ZM0.195,-0.317L0.195,-0.318C0.195,-0.377 0.229,-0.417 0.284,-0.417C0.335,-0.417 0.368,-0.378 0.368,-0.318L0.368,-0.317L0.195,-0.317Z" style="fill-rule:nonzero;"/>
            </g>
            <g transform="matrix(12,0,0,12,276.41,586.736)">
                <path d="M0.378,-0.083L0.386,-0.083L0.386,-0.069C0.39,-0.022 0.418,0.005 0.463,0.005C0.514,0.005 0.541,-0.025 0.541,-0.081L0.541,-0.62C0.541,-0.675 0.513,-0.706 0.462,-0.706C0.412,-0.706 0.384,-0.675 0.384,-0.62L0.384,-0.443L0.376,-0.443C0.357,-0.497 0.301,-0.529 0.229,-0.529C0.11,-0.529 0.037,-0.441 0.037,-0.294L0.037,-0.229C0.037,-0.083 0.11,0.006 0.229,0.006C0.301,0.006 0.36,-0.029 0.378,-0.083ZM0.199,-0.239L0.199,-0.284C0.199,-0.361 0.233,-0.408 0.29,-0.408C0.347,-0.408 0.384,-0.361 0.384,-0.291L0.384,-0.236C0.384,-0.161 0.349,-0.115 0.291,-0.115C0.233,-0.115 0.199,-0.161 0.199,-0.239Z" style="fill-rule:nonzero;"/>
            </g>
            <g transform="matrix(12,0,0,12,283.617,586.736)">
                <path d="M0.377,-0.087L0.385,-0.087L0.385,-0.07C0.388,-0.021 0.416,0.005 0.461,0.005C0.507,0.005 0.538,-0.025 0.538,-0.078L0.538,-0.44C0.538,-0.497 0.509,-0.526 0.459,-0.526C0.41,-0.526 0.381,-0.497 0.381,-0.44L0.381,-0.217C0.381,-0.16 0.347,-0.122 0.291,-0.122C0.244,-0.122 0.21,-0.149 0.21,-0.214L0.21,-0.44C0.21,-0.497 0.181,-0.526 0.132,-0.526C0.082,-0.526 0.053,-0.497 0.053,-0.44L0.053,-0.174C0.053,-0.053 0.119,0.006 0.223,0.006C0.305,0.006 0.36,-0.036 0.377,-0.087Z" style="fill-rule:nonzero;"/>
            </g>
            <g transform="matrix(12,0,0,12,290.737,586.736)">
                <path d="M0.139,0.005C0.189,0.005 0.218,-0.025 0.218,-0.081L0.218,-0.62C0.218,-0.676 0.189,-0.706 0.139,-0.706C0.089,-0.706 0.061,-0.676 0.061,-0.62L0.061,-0.081C0.061,-0.025 0.089,0.005 0.139,0.005Z" style="fill-rule:nonzero;"/>
            </g>
            <g transform="matrix(12,0,0,12,294.082,586.736)">
                <path d="M0.036,-0.231C0.036,-0.079 0.135,0.013 0.296,0.013C0.362,0.013 0.419,-0.002 0.455,-0.028C0.484,-0.046 0.501,-0.071 0.501,-0.099C0.501,-0.132 0.48,-0.152 0.449,-0.152C0.424,-0.152 0.414,-0.143 0.39,-0.128C0.37,-0.113 0.345,-0.105 0.307,-0.105C0.237,-0.105 0.196,-0.146 0.195,-0.208L0.195,-0.227L0.439,-0.227C0.495,-0.227 0.516,-0.249 0.516,-0.308C0.516,-0.438 0.418,-0.534 0.28,-0.534C0.133,-0.534 0.036,-0.437 0.036,-0.289L0.036,-0.231ZM0.195,-0.317L0.195,-0.318C0.195,-0.377 0.229,-0.417 0.284,-0.417C0.335,-0.417 0.368,-0.378 0.368,-0.318L0.368,-0.317L0.195,-0.317Z" style="fill-rule:nonzero;"/>
            </g>
            <g transform="matrix(12,0,0,12,300.692,586.736)">
                <path d="M0.214,-0.081L0.214,-0.281C0.214,-0.356 0.249,-0.395 0.319,-0.397C0.343,-0.398 0.361,-0.403 0.373,-0.413C0.385,-0.424 0.392,-0.439 0.392,-0.461C0.392,-0.483 0.385,-0.5 0.372,-0.512C0.36,-0.523 0.343,-0.529 0.321,-0.529C0.271,-0.529 0.234,-0.5 0.216,-0.446L0.209,-0.446L0.209,-0.453C0.206,-0.5 0.18,-0.526 0.134,-0.526C0.084,-0.526 0.057,-0.495 0.057,-0.44L0.057,-0.081C0.057,-0.026 0.083,0.005 0.134,0.005C0.185,0.005 0.214,-0.026 0.214,-0.081Z" style="fill-rule:nonzero;"/>
            </g>
        </g>
        <path d="M1013.96,397.539L1013.96,402.862C1013.96,404.135 1013.61,404.554 1012.8,404.554C1012.14,404.554 1011.77,404.212 1011.36,403.896C1011.01,403.622 1010.63,403.366 1010.03,403.366C1009.17,403.366 1008.56,403.956 1008.56,404.87C1008.56,405.46 1008.77,405.972 1009.15,406.382C1009.85,407.134 1011.12,407.553 1012.69,407.553C1015.84,407.553 1017.55,405.921 1017.55,402.879L1017.55,397.539C1017.55,396.248 1016.89,395.548 1015.73,395.548C1014.57,395.548 1013.96,396.24 1013.96,397.539Z" style="fill-rule:nonzero;"/>
        <path d="M1028.07,407.391C1029.07,407.391 1029.76,406.699 1029.76,405.716C1029.76,405.229 1029.61,404.861 1029.11,404.186L1026.6,400.88L1029,398.316C1029.4,397.889 1029.57,397.539 1029.57,397.111C1029.57,396.231 1028.88,395.548 1028,395.548C1027.51,395.548 1027.1,395.753 1026.68,396.214L1023.3,399.948L1023.09,399.948L1023.09,397.47C1023.09,396.24 1022.45,395.548 1021.3,395.548C1020.14,395.548 1019.5,396.231 1019.5,397.47L1019.5,405.46C1019.5,406.681 1020.18,407.382 1021.35,407.382C1022.48,407.382 1023.09,406.707 1023.09,405.46L1023.09,403.947L1023.95,403.101L1026.35,406.348C1026.88,407.066 1027.41,407.391 1028.07,407.391Z" style="fill-rule:nonzero;"/>
    </g>
</svg>
